<svg xmlns="http://www.w3.org/2000/svg" xml:space="preserve" width="482" height="387.9" viewBox="0 0 127.5 102.6"><path d="m8 156-2-1H3l-1-1h-4l-2 1-3-1h-1l-1-1-1-1-1-2-1-1h-3l-3-1h-2v-1h-1l-1-1h-1l-1-1v-1l-1-3 1-2-1-1h-6v-1l-3-3h-1v-9l1-1v-2h1v-1l1-2h1v-1h1l1-2 1-1h1l1-1h12l-1-1h-1l-1-1-1-1h-1v-1l-1-1h-1l-1-1-1-1-1-1v-1h-1v-1l-1-1v-8l1-2h3l5-1 5 1h2l-1-1v-1l-1-2v-3l1-2v-4h1l2-3 2-1h7l1 1 2 2v2l1 1h1l2 2v1h1l1 1h1v-2l-1-1v-2H9v-2l-1-1v-8l1-1v-1h1l1-2 1-1 1-1 2-1h1l2-1 1-1h1v-1h3l4-1h3v1h2l1 1h1v1h1v1l1 1 1 1v1-2l1-3 1-1 2-3v-1h2v-1h2v-1h3l7-1 8 1h2v1l2 1v1l-1 5v8l1 1 1 1 1 1 7 1h5l2 1h3l1 1v1h1v2h1v2l-1 1v4l2 2v5l1 1h1v3l-1 3v1h-1l-1 1h-2v1h-1l1 1v1h1v1l1 3-1 2v2l-1 1-1 1h-2l-1 1h-4l-3 1-1 1-1 2h-6l-2-2-1-1v-1h-1v-1h-2c-3 0-3 0-3 3v3l1 1 2 2 1 1 2 2 2 1 1 2 1 2h1v3l1 1v2l-1 2h-1l-1 1h-1v1l-2 1-2 1-1 1h-2l-1 1h-1l-1 1h-1l-1 1h-7l-3 1-4-1h-2l-1-1h-2l-1-1h-1l-1-1h-2v-1l-1-1h-1l-1-1v-1h-1v3l-1 1-1 1v1l-1 1-1 1-2 3-1 1-1 1-2 1-1 1H8zm-11-4 1-1h1v-1h-1l-1 1v1zm3-2zm2-1H1h1zm5-3v1-1zm2 0 1-1 1-1 1-1h1l1-2v-1l1-1 1-1 1-1 1-1h1l1-1 1-1 1-1h1v-1l1-1 1-1v-1h1v-1l1-1v-1h1l2-3 1-1h1l1-1-2 1h-1v1h-2v1l-2 1v2h-1v2h-1v1l-1 1-1 1-1 1-2 1v1h-1v1h-2l-1 1-1 2-1 1-1 1-1 1-1 1-1 1v1H8v1h1zm-25-5-2-1h-2l-1-1-1-1v-2l1-1v-2l2-2a758 758 0 0 0-3 5v3l2 1v1h4zm2-1h-1 1zm8-5v-1 1zm52-2h-1 1zm12-1-1-1 1 1zm-7-2v-1h-2l-1-1h-3l1 1 1 1h3v1l1-1zm5 0-1-1c-1 1 1 1 1 1zm-67-6h-1l1 1v-1zm2 0h-1 1zm43-4 1-1v-2l-2 1h1s1 0 0 0v1l-1 1v1l1-1zm-32-1-1-1H0l-1-1h-1l-1-1h-3l2 1 1 1h3l1 1h1zm24 0 2-1h2l1-1h-3v1h-2v1zm6-2v-1 1c0 1 0 1 0 0zm6-1 1-1a151 151 0 0 1 0-1v1l-2 1v1l1-1zm4-3h-1l1 1v-1zm1 0zm1-1h1v-1l-1 1c-1 0 0 0 0 0zm3-2v-1l-1 1h1zm-45-1H1h1zm46 0 1-1 1-1h-1l-1 1-1 1h1zm-48-3v-1l-1-1v-1l-1-1-1-2-1-2-1-1-1-1v-1h-1l-1 1h-1 1l1 1h1v1l1 1v1h1v1l1 1v1h1v1l1 1 1 1v1-1zm24 0v-1h1l1-1 1-1 1-1v-1l1-1 1-3 1-1 1-1v-1l1-1v-1l1-1v-2l-2 3v2h-1v1l-1 2h-1v1l-1 1-1 1-1 1v1l-1 1-1 1v1l-1 1h1zm27 0h1l-1-1v1h-1 1zm2-1h-1 1c1 0 1 0 0 0zm5-1h-4l2 1 2-1zm-47-7-1 1 1 1v-2zm23-11v-1 2-1zm-1-3h-1 1zm-14-2z" style="fill:#eacfa6;stroke-width:.264583" transform="translate(35 -53)"/><path d="m9 156-2-1H5l-2-1H-7l-1-1-1-1-1-1v-1h-1v-1h-1v-1h-7v-1l-2-1-1-1-1-1-1-1 1-1s1 0 0 0l-1-2-4-2-2-1h-1c-2 0-4-3-4-5v-7l1-1v-2h1v-1l1-2 2-2 3-2h1v-1h12l-1-1h-1l-1-1-3-3-3-2-1-1v-1h-1v-2h-1v-8l2-1 1-1h13l-1-1v-1l-1-2v-3l1-2v-2l1-3h1l1-1v-1h2l3-1 4 1h1l1 1 1 1v2l2 2 2 1v1l2 1h1v-2l-1-1v-2H9v-3l-1-1v-7h1v-2l4-3 1-1 1-1h1l1-1h1l1-1h2l1-1h3l2-1h2l1 1h1l1 1h2v1l1 1 1 1 1 1v1-1l1-2v-2h1v-2l1-1v-1l1-1h2v-1h2l1-1h2l7-1 8 1h1l1 1h1l1 1v5l-1 1v1a818 818 0 0 0 1 9l1 1h1v1h11l3 1h3l1 1v1h1v2l1 1v1l-1 1v1l-1 1v2h1l1 1v6l1 1 1 1 1 2-1 3-1 1h-2l-1 1h-1v2l1 1v1h1v5l-1 1v1l-2 1v1h-2l-1 1h-6l-1 1-1 1-2 2h-3l-2-2h-1v-1l-1-1-1-1h-6v2l1 4 1 2h1l1 1v1h1l1 1 1 1h1v1h1v1h1v1l1 2h1v3l1 2-1 3h-1l-1 1-1 1h-1v1h-1l-1 1h-2l-1 1h-1l-1 1h-1l-1 1h-2l-7 1h-2l-2 1-2-1h-3v-1h-3l-1-1h-1l-1-1-1-1-2-1h-1l-1-1v-1h-1v2l-1 1-1 2-1 1v1l-1 1h-1l-1 1-4 5-8 1zm-11-4v-1h1l1-1 1-1h1-1l-2 1h-6c0 1 1 2 3 2h2zm10-6h2v-1l3-3h1v-1l1-2h1l2-3h1v-1h2l1-1 1-1 1-1v-1l1-1 1-1v-1h1v-2l1-1 1-1 1-1h1l1-1 1-1h3l1-1 1-2 1-2 1-1 1-1h1l1-1h1l2-2 2-1v-1l2-2h1l1-1 1-1h6v-1h-2a352 352 0 0 1-7 2l-1 1-1 1v1l-1 1h-1l-1 1h-1l-1 1-1 1h-1v1h-2l-1 1-1 1-4 1h-5v1h-2v1h1l1-1h6v2h-1l-1 1-1 1h-1v1h-2v1l-2 1v2h-1v2h-1v1l-5 4v1h-1l-1 1h-1l-1 1-1 1-1 1v1l-1 1v1h-1l-1 1-1 1-1 1v1H7v1l1-1zm28-27h1-1zm-46 25v-5l1-1v-1h1l3-3h-2v1h-1l-1 1h-1l-1 1-1 1h-1l-1 1h-1l-2 1-3-1h-1v-1l-1-1 1-1v-3h1v-2l3-2 3-2 1-1 1-1h1v-1h3-4l-2 1-1 1-1 1-1 1-1 1-2 1-1 1v1h-1v2h-7l-1-1-1-1h-1l-1-1v3h1l1 1h1l3 1 3-1 1 2v1h1v2h1l1 1h5l1-1h1c1-1 1 0 1 1v1l1 1v1l1 1v-1zm57-5-1-2v1-5l-1-1v-1l-1-1-1-1v1l1 1 1 1v2l-1-1-1-1v-1l-1-1-1-1h-1v-1l-1 1h-1l-1 1h-1c-1 1 0 2 1 2v2l-1 1 2 1-1 1 1-1h1l1 1v1h1v-2l-1-1 1-1v-1l-1-1v-1h-1l1-1 1 1 1 1v2l1 1 1 3 1 1 1 1 1-1zm7-1 1-1h-1l1-1h3l2-1v-2l1 1 1 1v2l-2 1 1 1 1-1h1v-1h1l1-1h-1v-2h-1v-1l-1-2v-1h1l-1-2v1h-1v-1c-1 0-1 0 0 0v-1l-1-1-1-1h-2v-1h-1v1l-1 1-1-1v-1l-1 1-1 1v2h-2v-1c0-1 0-1 0 0l-1 1v1-1h-1v-1h-2l-1-1h-3v1l2 1 1 1 1 1v1h1v1l2 1h2v1l1 1 1 1v2h-1l2 1v-1zm9-3v-1 2-1zm-9 0-1-1-1-1v-1h1l1 1v1l1 1h-1zm4 0-1-1-1-1v-2l1 1v1l1 2zm-7-3v-1l1 1h-1zm2-2v-1l1 1h-1zm-3-2v1-1zm9 0v-1l1 1h-1zm-1-1-1-1v-1l1 2h1-1zm-9 7h-1v-1 1l1 1v-1zm-15-5zm17-5v1-1zm5 0h-1 1zm-53-5c-1 0 0 0 0 0zm-1 0-1-1H0l-1-1h-1l-1-1h-2l-1-1v1l1 1h1l1 1h2l1 1h2zm0-10v-2l-1-1-1-1v-1l-1-1v-1h-1v-2h-1l-1-1v-1l-1-2-1-1h-1l-1 1h-1l2 1 1 2 1 1h1v1l1 1v1h1v2h1v1h1v2l1 1 1 1v-1zm20 1-1-1v1h1zm0-2v1-1zm1-1a56 56 0 0 1 7-7v-2l1-1v-1l1-1 1-2v-1l1-1v-1l1-1v-3l-1-1-1-1-3-3v-1h-2l-4-1-4 1h-1l-1 1h-1l-2 2h1l2-2h2l1-1h7l1 1h1l1 1 1 1v1l2 2v3l-1 1v2h-1v1h-1v2l-1 2h-1l-1 1v1l-1 1v1h-1v1h-1v1l-1 1v1l-1 1v1h-1 1zm-12-4V88h-1l-1 1v1l1 3v8l1 3v-1zm21-4 1-1h2l1-1h1-3l-1 1h-1l-1 1h1zm28-20zm3-1h-2l1 1 1-1zm2 0h-1 1z" style="fill:#d8b290;stroke-width:.264583" transform="translate(35 -53)"/><path d="M8 155H6l-2-1h-9l-3-1v-1l-1-1v-1l-1-1-1-1v-1l-1-1v-1h-1v-1l-1-1h-7v-1h-2l-1-2-1-2a20 20 0 0 1-6-1c-2 0-4-3-4-5v-7l1-1v-2h1v-1l1-2 2-2 3-2h1v-1h12l-1-1h-1l-1-1-3-3-3-2-1-1v-1h-1v-2h-1v-8l2-1 1-1h13l-1-1v-1l-1-2v-3l1-2v-2l1-3h1l1-1v-1h2l3-1 4 1h1l1 1 1 1v2l2 2 2 1v1l2 1h1v-2l-1-1v-2H9v-4l-1-2v-4l1-1v-2l4-3 1-1 1-1h1l1-1h1l1-1h2l1-1h3l2-1h2l1 1h1l1 1h2v1l1 1 1 1 1 1v1-1l1-2v-2h1v-2l1-1v-1l1-1h2v-1h2l1-1h3l7-1 7 1 1 1h2l1 1v4l-1 1v2l-1 2v4l1 2 2 1v2h12l3 1h3l1 1v1h1v2l1 1v1l-1 1v1l-1 1v2h1l1 4 1 4v2h1v1l1 1v1l-1 1-2 1h-1l-2 1-1 2 1 1v1h1l1 1v3l-1 2-1 2-2 1h-8v1l-1 1h-1v1l-3 2-4-2h-1v-2l-2-1h-1l-3-1h-2v6l1 2 1 1h1l1 1v1h1l1 1 1 1h1v1h1v1h1v1l1 2h1v3l1 2-1 3h-1l-1 1-1 1h-1v1h-1l-1 1h-2l-1 1h-1l-1 1h-1l-1 1h-2l-7 1h-2l-2 1-2-1h-3v-1h-2l-2-1h-1l-1-1-1-1-2-1h-1l-1-1v-1h-1l-1 1v2l-1 1v1l-2 2v1l-3 3-1 1-1 1h-1v1H8zm-11-3h1l1-1 2-1v-1h1-2l-2 1-2 1-2-1h-1v2h4zm11-6h2v-1h1l1-1 1-2h1v-1l1-1v-1h1l2-3h1v-1h2l1-1 1-1h1v-1l1-2 1-1v-1a151 151 0 0 0 6-6h1l1-1h1l3-2 1-2v-1l2-2h2v-1h2v-1l1-1 1-1 2-1 1-1 3-2 1-1 6-1h-7v1h-2v1h-1l-1 1-1 1v1l-1 1h-1l-1 1h-1l-1 1-1 1h-1v1h-2l-1 1-1 1-4 1h-5v1h-2v1h1l1-1h6v2h-1l-1 1-1 1h-1v1h-2v1l-2 1v2h-1v2h-1v1l-5 4v1h-1l-1 1h-1l-1 1-1 1-1 1v1l-1 1v1h-1l-1 1-1 1-1 1v1H7v1l1-1zm-18-2v-5l1-1v-1h1l3-3h-2v1h-1l-1 1h-1l-1 1-1 1h-1l-1 1h-1l-2 1-3-1h-1v-1l-1-1 1-1v-3h1v-2l3-2 3-2 1-1 1-1h1v-1h3-4l-2 1-1 1-1 1-1 1-1 1-2 1-1 1v1l-1 1v1h-7l-1-1-1-1h-1l-1-1v2l1 1v1h1l1 1h7-1l1 1 1 2v1h1v1h7l1-1v2l2 2v1h1v-1zm50-2h-1 1zm3 0h-1 1zm1 0 1-1 1 1h1l-1-1h2l-1-3v-4l-2-3v-1h-2l-1-1h-1l-1-1h-3v-1 1c1 1 0 1-1 1h-1l-1-1-1 1 1 1h1v3l1 1v-2l1 1v1l-1 1 1 1-1 1c-1 0-1 0 0 0l2 1h1l1 1h1v-1l1-1 1 1-1 2 1 1v1h1zm-1-3 1-1v1h-1zm-2-3 1-3v1l1 1h-1v1h-1zm3-3v-1l-1-1h1v1l1 1h-1zm-4-2c-1 0-1 0 0 0v1-1zm11 11h1v-1h2l1-2v-1l1 1h1l1-1h1l1 1h4l1-1v-5h-1 2l-1-1-1-1v-1h-1v-1l-1-1v-1h-1v-1h-1l-1-1h-1l-1-1h-2l-1-1-4 1h-1 1l1 1h1l-1 1-1-1h-1v-2h-2v-1 2h1l-2 1v1h-2v-1l-1 1-1-1h-3v1h1l1 1 1 1h2l1 1 1 1v1l1 1v1l1 1 2 2v1h2-1v-1h-1v-1l-1-1v-1l2 1 1 1v1h1l-1 1v3l-1 1-1-1v2h1zm4-5h1-1zm2 0 1-1c1 0 1 0 0 0v1h-1zm3 0h1-1zm0-2 1-1v1l-1 1v-1zm-6 0v-1h-1l-1-1 1-1v1h1v1l1 1h-1zm3-1h1-1zm-2-2 1-1v1h-1zm-4-5h1l-1 1v-1zm-3 0h-1v-1h2v1h-1zm8-1 1-1v1h-1zm-2-1h2-2zm-14 16v-1s-1 0 0 0v1zm-3-1h-1 1zm14-1v-1 2-1zm-2 0v-1l-1 1h1zm-14-2h-1v1l1-1zm14 0c0-1-1 0 0 0 0 1 0 1 0 0zm-16-7h-1l1 1v-1zm10-7v-1l-1 1h1zm-40-4c-1 0 0 0 0 0zm-1 0-1-1H0l-1-1h-1l-1-1h-2l-1-1v1l1 1h1l1 1h2l1 1h2zm67-2v1-1zm-67-8v-2l-1-1-1-1v-1l-1-1v-1h-1v-2h-1l-1-1v-1l-1-2-1-1h-1l-1 1h-1l2 1 1 2 1 1h1v1l1 1v1h1v2h1v1h1v2l1 1 1 1v-1zm20 1-1-1v1h1zm0-2v1-1zm1-1a56 56 0 0 1 7-7l2-1 1-1h2l1-1h1-3l-1 1h-2l-1 1v-1l1-1 1-2 1-1v-1l1-1v-1l1-1v-2l-1-2v-2h-1v-1l-2-2-1-1H19l-1 1h-1l-2 2h1l2-2h2l1-1h7l1 1h1l1 1 1 1v1l2 2v3l-1 1v2h-1v1h-1v2l-1 2h-1l-1 1v1l-1 1v1h-1v1h-1v1l-1 1v1l-1 1v1h-1 1zm-12-4V88H9v2l1 3v8l1 3v-1zm30-6h-3 3zm20-18h1l1-1h3l1-1h4l-1-1-1 1h-4l-2 1h-2l-1 1h-1 2zm21 0s1 0 0 0zm-5-2v-1 1z" style="fill:#a79fc6;stroke-width:.264583" transform="translate(35 -53)"/><path d="M8 155H6l-2-1H-7l-1-1v-1l-1-1v-1l-1-1-1-1v-1l-1-1v-1h-1v-1l-1-1h-7v-1h-2l-1-2c0-1 0-2-4-2l-2-1h-2l-1-1-1-2-1-1v-8l1-1v-2h1v-1l1-1 2-3a16 16 0 0 1 4-2v-1h12l-1-1h-1l-1-1-2-1v-1l-1-1-1-1-1-1h-1l-1-1v-1l-1-1v-1h-1v-8l2-2h2l5-1 5 1h1l1-1h-1v-2l-1-2v-1l1-2v-3l1-1v-1l3-3h1v-1h3l4 1h1l1 1 1 1v2l2 2 1 1 1 1h3l-1-2v-2H9v-4l-1-2v-4l1-1v-2l2-2h1v-1l2-1 1-1h2v-1h1l1-1h2l1-1h9l1 1h2v1l1 1 1 1 1 1v1-2l1-1v-2h1v-2l3-3h1v-1h2l1-1h3l7-1 7 1 1 1h2l1 1v4l-1 1v2l-1 2v4l1 2 2 1v1l2 1h2c0 1 0 1 0 0h3c0 1 0 1 0 0h5l2 1h4l1 1v1h1v6l-1 1v2h1l1 4 1 4v2h1v1l1 1v1l-1 1-2 1h-1l-2 1-1 2 1 1v1h1l1 1v3l-1 2-1 2-2 1h-8v1l-1 1h-1v1l-3 2-4-2h-1v-2l-2-1h-1l-3-1h-2v6l1 2 1 1 1 1 2 1h1v1h1l1 1v1h1v1h1v1l1 2 1 1v2l1 2-1 2-1 1-1 1-1 1-2 1-1 1h-1l-1 1h-2l-1 1h-1l-1 1h-2l-10 1h-5l-1-1h-2l-1-1h-2l-1-1h-1v-1h-2v-1h-1l-1-1v-1h-1l-1 1v2l-1 1v1l-2 2v1l-3 3-1 1-1 1h-1v1H8zm-11-3h1l1-1h1l1-1 1-1h1v-1h1l1-1h1c-2 0-2 0-2-2v-1l1-2v-5H3v2l-1 1v2H1v2l-1 2v2l-1 1v1h-2v-4l-1 1v1h-2l-1 1v3h4zm7-13 1-1v1H4zm-10 9v-1h1v-1l1-1-2 1v1l-1 1h1zm5 0h-1l1 1v-1zm-6-1h-1v-1l-1-1v-1l-1-2v-1l1-2 3-3 1-2 1-1h1v-1h1l-2 1h-2v1h-2l-2 1h-1l-1 1h-2l-1 1h-1l-1 1h-1l-1 1h-1v-1h1v-1h2v-1h1l1-1v-2h-1l-1 1h-1l-1 1-1 1v1l-1 1v-1l2-3 2-2h1v-1h1l1-1h1l1-1h1-2l-1 1h-1l-1 1h-1l-1 1h-1l2-2 1-1h1v-1h1l1-1h2l1-1h2l1-1h3l2-1h3l2-1H0l-2-1-2 1h-6l-1 1h-2v1h-2v1h-1l-1 1-1 1-1 1-1 1h-1v1l-1 1v1l-1 1v-1h-2l-1 1v-1l1-1 1-1h1l1-1 1-1 1-1 1-1h1-2l-1 1h-2l-1 1h-1l-2 1h-1l-2 1-1 1h-1l1-1 1-1 2-1h1l1-1h1l1-1h2v-1h2l1-1h1-5l-2 1h-2l-1 1h-2l-2 1-1 1v3l1 2v1h1l1 1h7-1l1 1 1 2v1h1v1h7l1-1v2l2 2v1h1v1l1 1 1 1 1-1zm-6-10 2-1-1 1h-1zm-6-1h1-1zm2-1v1-1zm-11-2h1v1l-1-1zm8 1 1-1h-1v1zm-10-1h1-1zm38 13h1l1-1h1l1-1 1-2h1v-1l1-1v-1h1l1-2 1-1h1l1-1h1l1-1 1-1h1v-1l1-2 1-1v-1a151 151 0 0 0 6-6h1l1-1h1l3-2 1-2v-1l2-2h2v-1h2v-1l1-1 1-1 2-1 1-1 3-2 1-1 6-1v-1a20 20 0 0 0-8 1l2-1 1-1h-1l-1-1v1-1l-1 1-1 1h-1v1h-1v1l1-1h2l-1 1-3 3-1 1h-1l-1 1-1 1-1 1-1 1h-1l-1 1h-1l-1 1h-1l-3 1h-4l-1 1h-1l-1 1h-1l-1 1h-1 5l4 1-1 1-1 1h-1l-1 1h-1l-1 1-1 1v1l-1 1v1l-1 1v1l-1 1h-1v-2l-2-1h-1l-1-1h-1v4l1 1-1 1v1h-1l-1 1h2v-1h2-1v1h-1l-1 1h-1v1l-1 1-1 1-1 1-1 1v1l-1 1-1 2H7l-1 1v1l2-1zm-14-1-1-1v1h1zm46-3h-1 1zm3 0h-1 1zm1 0 1-1 1 1h1l-1-1h2l-1-3v-4l-2-3v-1h-2l-1-1h-1l-1-1h-3v-1 1c1 1 0 1-1 1h-1l-1-1-1 1 1 1h1v3l1 1v-2l1 1v1l-1 1 1 1-1 1c-1 0-1 0 0 0l2 1h1l1 1h1v-1l1-1 1 1-1 2 1 1v1h1zm-1-3 1-1v1h-1zm-2-3 1-3v1l1 1h-1v1h-1zm3-3v-1l-1-1h1v1l1 1h-1zm-4-2c-1 0-1 0 0 0v1-1zm11 11h1v-1h2l1-2v-1l1 1h1l1-1h1l1 1h4l1-1v-5h-1 2l-1-1-1-1v-1h-1v-1l-1-1v-1h-1v-1h-1l-1-1h-1l-1-1h-2l-1-1-4 1h-1 1l1 1h1l-1 1-1-1h-1v-2h-2v-1 2h1l-2 1v1h-2v-1l-1 1-1-1h-3v1h1l1 1 1 1h2l1 1 1 1v1l1 1v1l1 1 2 2v1h2-1v-1h-1v-1l-1-1v-1l2 1 1 1v1h1l-1 1v3l-1 1-1-1v2h1zm4-5h1-1zm2 0 1-1c1 0 1 0 0 0v1h-1zm3 0h1-1zm0-2 1-1v1l-1 1v-1zm-6 0v-1h-1l-1-1 1-1v1h1v1l1 1h-1zm3-1h1-1zm-2-2 1-1v1h-1zm-4-5h1l-1 1v-1zm-3 0h-1v-1h2v1h-1zm8-1 1-1v1h-1zm-2-1h2-2zm-56 16h-1v1l1-1zm42 0v-1s-1 0 0 0v1zm-42-1s0 1 0 0zm39 0h-1 1zm14-1v-1 2-1zm-52 0h-1 1zm50 0v-1l-1 1h1zm-53-1h1l1-1 1-1v-1h-1v1h-1l-1 1v1zm-1-1h-1l1 1v-1zm40 0h-1v1l1-1zm14 0c0-1-1 0 0 0 0 1 0 1 0 0zm-44-1v-2l-1 1v1h1zm1 0v-1 1zm-20-1v-1l-1 1h1zm13 0v-1 1zm1-1zm1-1H0l1 1v-1zm-14 0v-1 1zm2-1v-1 1zm44-2h-1l1 1v-1zm-64-3 1-1h1l1-1h2l1-1h3l2-1h-8l-1 1-1 1h-1v1h-1l-1 1h2zm2-3h1l-1 1v-1zm12 2h-1v1l1-1zm27 0v-1 1zm33-3v-1l-1 1h1zm-71-1h4l4-1h2l-5-1-4 1h-1v1h-1 1zm13-1h-2l1 1 1-1zm4-1h-2 2zm15-1c1 0 1 0 0 0H3l-1-1H1l-1-1h-2l-1-1h-1l-1-1h-1v2l1 1h3l1 1h5zm-25 0h5-1l-5-1-4 1h5zm6-2h-1l1 1v-1zm27 0 1-1v-6a22 22 0 0 0 0-7l-1-4V87h-1v1H8v2l1 1v4l1 3v6l1 3v6c0 5 0 5 1 4zm57 0v1-1zm-93 0v-1 1zm6 0-3-1-2 1h5zm37-2v1-1zm-13 0v-1H5v-2H4v-2l-1-1v-1l-1-1v-1l-1-1-1-1v-1h-1v-2h-1v-1l-1-2-1-1-1-1-1-1-1-2v2l-1 1h-1l1 1 1 1 1 1 1 1 1 1v1l1 1 1 1v1h1v1l1 1v1l1 1v1h1v1l1 1 1 1v1l2 2v-1zm14-1v-1l1-1v-1l1-1v-1h1v-1l1-2h1l1-2a365 365 0 0 0 8-5h1l2-1h3v-2l-2 1h-4l-1 1h-2l-1 1v-1l1-1 1-2 1-1v-1l1-1v-1l1-1v-2l-1-2v-2h-1v-1l-2-2-1-1H19l-1 1h-1l-2 2c0 1 0 1 0 0h2l1-1h1l1-1h8v1l-1 1h1v-1h1v-1l1 2h2v1l1 1v4l-1-1-1-1-1 1 1 1v2c-1 0-1 0 0 0v1l-1 1v1h1l-1 1v1l-1 1-1 1v1l-1 1-1 1-1 1v1h-1v1l-1 2h-1v2l-1 1-1 1v3l-1 1 1 1v-1zm11-21v-1 1zm1-2v-1h1l-1 1v1-1zm-47 16h-1 1zm-3-1v-1l-1 1h1zm3 0v-1 1zm-4-1v-2h3v-1l1 1v1h1v-1c1-1 0-1-1-1l-1-1c1-1-1-2-1-2l-2-1v-1h1l1 1 1 1v-1l1-2v-1h-2l-1 1-1-1h-2l-1 1-2 1v2l1 1h1l-1 1 1 1h1v1l1 1 1 1c1 0 1 0 0 0zm1-4h1-1zm-1-1-1-1v-1l1 1 1 1h-1zm-3-3h1-1zm5-1v1-1zm-4 8h-1 1zm67-1v-1l-1 1h1zm-57-1h-1c0-1 0-1 0 0v1l1-1zm1 0h-1v1l1-1zm54 0v-1 1zm3 0v-1 1zm4 0-1-1v1h1zm-6-1zm3 0zm2 0h-1 1zm6 0c0-1 0-1 0 0zm-5-1 1-1v1h4l-2-1h-1l-1-1-1 1-1 1-1-1h1l1-1h-5l-1 1-1 1 2-1h1v-1h1l-1 2h-1l-1 1h1l1-1h3l1 1v-1zm-7 0h-1l1 1v-1zm-54 0v-1l-1-1v-1h-1v1c1 0 1 0 0 0h-1l2 2h1zm-3-1-1-1-1-1v2l1 1 1-1zm51 0s0 1 0 0zm6 0 1-1h-2v1h1zM20 89v-4l-1 5c0 4 1 3 1-1zm-27 2h-1v1l1-1zm1 0v1-1zm2 0v-2h1v-1l1 1h-1l1 1h1l1-1v-2h1v1h1l1 1 1-1c1 0 0 0 0 0H3l-1-1v-1H1v-2h2v1l-1 1h1v-1 1h1v-1l-2-2v-1l-2-1-1 1h-1l3-1h1v-1H1l-1-1v1h-1l-1-1-1-1v2h-1v-1l-1 1v1h-3v1l-1 2v1h1l1 1h-2v3h2l1 1h1v1l1 1v-1zm-2-2v-1h-1v-1l1 1v1zm1-2h1-1zm5-1v-1 1zm-7-2v-1 1c0 1 0 1 0 0zm5 0 1-1v1h-1zm2 0v-2l1 1c1 0 1 0 0 0l-1 1zm-5-2v-1l1 1h-1zm2 0v-1l1 1h-1zm2 9h-1l1 1v-1zm23 0v-3l1-1 1-1h1-1v-1h-1v1h-1v2l-1 1v3l1-1zm-4-1h-1 1zm-3-1v1-1zm2-1 1-1v1h-1 1l1-1-1-2-1-1v-1 2h1l-1 2h-2l1 1h1zm7 0zm1 0-1-1 1 1zM3 87zm24 0h-1 1zM6 86v1-1zm-4-1zm14 0v-1l-1 1h1zm14-1v-1 1zm31-5h1l1-1h3l1-1h4l-1-1-1 1h-4l-2 1h-2l-1 1h-1 2zm21 0s1 0 0 0zm-5-2v-1 1z" style="fill:#d19a6e;stroke-width:.264583" transform="translate(35 -53)"/><path d="M5 154H2l-1-1-1 1h-7l-1-2-1-1c0-1 0-2-2-3v-1l-1-1v-1h-1l-1-2h-1c0-1 0-1 0 0h-5l-1-1h-1l-2-2c0-1 0-2-4-2l-2-1h-2l-1-1-1-2-1-1v-8l1-1v-2h1v-1l1-1 2-3a16 16 0 0 1 4-2v-1h12l-1-1h-1l-1-1-2-1v-1l-1-1-1-1-1-1h-1l-1-1v-1l-1-1v-1h-1v-8l2-2h2l5-1 5 1h1l1-1h-1v-2l-1-2v-1l1-2v-3l1-1v-1l3-3h1v-1h3l4 1h1l1 1 1 1v2l2 2 1 1 1 1h3l-1-2v-2H9v-4l-1-3v-3l1-1v-2l2-2h1v-1l2-1 1-1h2v-1h1l1-1h2l1-1h9l1 1h2v1l1 1 1 1 1 1v1-2l1-1v-2h1v-2l3-3h1v-1h2l1-1h3l7-1 7 1 1 1h2l1 1v4l-1 1v2l-1 1v2h-1v1h-1v3l1 1v1l1 1v-2 1h1v1l3 1h3c0 1 0 1 0 0h3c0 1 0 1 0 0h5l2 1h4l1 1v1h1v6l-1 1v1l-1 1h1l1 3v7l-1-1 1 1v1h1l-1 1v1h-2v1h-1l1 1v1l-1 1v5h1v2h-1v-1 2h1l-1 1h-1l1 1h-2v1h1-3v2l-1-1-1-1h-1l-1 1v-1h-1v1l-1 1v-1l-1 1-1 2v-1h-1l-1-1h-1l1 1 1 1v1l-1-1-1-1h-1v-1h-2l1 1h-1c0 1 0 1 0 0l-1-1-1-1h-2l-2-1h-4v1h-1c0-1 0-1 0 0v3l-1 1-1 1h1l1 1 1 1h2l1 1 1 1 2 1h1v1h1l1 1v1h1v1h1v1l1 2 1 1v2l1 2-1 2-1 1-1 1-1 1-2 1-1 1h-1l-1 1h-2l-1 1h-1l-1 1h-2l-10 1h-5l-1-1h-2l-1-1h-2l-1-1h-1v-1h-2v-1h-1l-1-1v-1h-1v-1l-1-1-1-1-1 2v2l-1 1v1l-1 1v1l-1 1-5 5-1 1h-3l-3 1H5zm-8-2h1l1-1h1l1-1 1-1h1v-1h1l1-1h1c-2 0-2 0-2-2v-1l1-2v-5H3v2l-1 1v2H1v2l-1 2v2l-1 1v1h-2v-4l-1 1v1h-2l-1 1v3h4zm7-13 1-1v1H4zm-10 9v-1h1v-1l1-1-2 1v1l-1 1h1zm5 0h-1l1 1v-1zm-6-1h-1v-1l-1-1v-1l-1-2v-1l1-2 3-3 1-2 1-1h1v-1h1l-2 1h-2v1h-2l-2 1h-1l-1 1h-2l-1 1h-1l-1 1h-1l-1 1h-1v-1h1v-1h2v-1h1l1-1v-2h-1l-1 1h-1l-1 1-1 1v1l-1 1v-1l2-3 2-2h1v-1h1l1-1h1l1-1h1-2l-1 1h-1l-1 1h-1l-1 1h-1l2-2 1-1h1v-1h1l1-1h2l1-1h2l1-1h3l2-1h3l2-1H0l-2-1-2 1h-6l-1 1h-2v1h-2v1h-1l-1 1-1 1-1 1-1 1h-1v1l-1 1v1l-1 1v-1h-2l-1 1v-1l1-1 1-1h1l1-1 1-1 1-1 1-1h1-2l-1 1h-2l-1 1h-1l-2 1h-1l-2 1-1 1h-1l1-1 1-1 2-1h1l1-1h1l1-1h2v-1h2l1-1h1-5l-2 1h-2l-1 1h-2l-2 1-1 1v3c0 2 0 3 2 3v1h4l4 1 1 2v1h1v1h8v1h1v1h1v2h1v1l1 1 1 1 1-1zm-6-10 2-1-1 1h-1zm-6-1h1-1zm2-1v1-1zm-11-2h1v1l-1-1zm8 1 1-1h-1v1zm-10-1h1-1zm38 13h1l1-1h1l1-1 1-2h1v-1l1-1v-1h1l1-2 1-1h1l1-1h1l1-1 1-1h1v-2h1v-1l1-1v-1h1v-1l1-1v-1l1-1h1v-1l1-1h3l1-1h1l2-1v-2l1-1 3-3h1v-1h1l1-1 1-1 1-1 2-1 1-1 3-2 3-1 5-1v-3h-1l-1-1c-1 0-1 0 0 0l1 3h-3a16 16 0 0 0-5 1l2-1 1-1h-1l-1-1v1-1l-1 1-1 1h-1v1h-1v1l1-1h2l-1 1-3 3-1 1h-1l-1 1-1 1-1 1-1 1h-1l-1 1h-1l-1 1h-1l-3 1h-4l-1 1h-1l-1 1h-1l-1 1h-1 5l4 1-1 1-1 1h-1l-1 1h-1l-1 1-1 1v1l-1 1v1l-1 1v1l-1 1h-1v-2l-2-1h-1l-1-1h-1v4l1 1-1 1v1h-1l-1 1h2v-1h2-1v1h-1l-1 1h-1v1l-1 1-1 1-1 1-1 1v1l-1 1-1 2H7l-1 1v1l2-1zm-14-1-1-1v1h1zm49-2h6v-1h6l1-1h1l1-1v-1 2h1l1-1v1h1l1-1h2l1-1 1-1h1l1-1-1-1v-2l-1-1v-1l-1-1-1-1-1-1a16 16 0 0 0-3-3v-1h-2v-1l-3-1h-1l-1-1-1 1h-1v-1h-1l-1 1-2-1h-2l-1-1h-1l2 1 1 1h-2l-1-1h-1l-1 1h-2l-1 1v1l-1-1-1 1h1v2l-1-1h-1c0-1 0-1 0 0h-1l1 1v1h-2v-1l-1 1h1l-1 1v1l-1 1v-1h-1v1h1l-1 1h3v3h-1v1l-1-1v-1 2l-1 1 1 1 1 1 1 1h2l-1 1h3v1h1v-2l1 1v1l1 1 1-1v1h2zm-2-3zm7 0h1v-2 2h-1zm0-2h1-1zm3 0h1-1zm-18-1h1-1zm14 0v-2h1v1h1-1v1h-1zm5 0-1-1v-2l1 1v2zm2-3zm-8-2v-1l1 1h-1zm-1-1h1-1zm0-1v-1 1zm-3-1 1-1v1h-1zm-3-2h1v1l-1-1zm-2 0zm14-2 1 1-1-1zm-6 0h1-1zm-1-1c-1 0-1-1 0 0h1-1zm3 0v1-1zm-49 17h-1v1l1-1zm33-1v1-1zm-33 0s0 1 0 0zm1-1h-1 1zm-3-1h1l1-1 1-1v-1h-1v1h-1l-1 1v1zm-1-1h-1l1 1v-1zm10-1v-2l-1 1v1h1zm1 0v-1 1zm-20-1v-1l-1 1h1zm13 0v-1 1zm1-1zm1-1H0l1 1v-1zm-14 0v-1 1zm2-1v-1 1zm-20-5 1-1h1l1-1h2l1-1h3l2-1h-8l-1 1-1 1h-1v1h-1l-1 1h2zm2-3h1l-1 1v-1zm12 2h-1v1l1-1zm27 0v-1 1zm-38-4h4l4-1h2l-5-1-4 1h-1v1h-1 1zm68 0h-1 1zm9 0-1-1v1h1zm-64-1h-2l1 1 1-1zm4-1h-2 2zm15-1c1 0 1 0 0 0H3l-1-1H1l-1-1h-2l-1-1h-1l-1-1h-1v2l1 1h3l1 1h5zm43 0h-3 3zm-68 0h5-1l-5-1-4 1h5zm6-2h-1l1 1v-1zm27 0 1-1v-6a22 22 0 0 0 0-7l-1-4V87l-1 1H9c0 1 0 1 0 0l-1 1v1l1 1v4l1 3v6l1 3v6c0 5 0 5 1 4zm43 0h-1l1 1v-1zm-79 0v-1 1zm6 0-3-1-2 1h5zm37-2v1-1zm35 1h-1 1zm-48-1v-1H5v-2H4v-2l-1-1v-1l-1-1v-1l-1-1-1-1v-1h-1v-2h-1v-1l-1-2-1-1-1-1-1-1-1-2v2l-1 1h-1l1 1 1 1 1 1 1 1 1 1v1l1 1 1 1v1h1v1l1 1v1l1 1v1h1v1l1 1 1 1v1l2 2v-1zm14-1v-1l1-1v-1l1-1v-1h1v-1l1-2h1l1-2a365 365 0 0 0 8-5h1l2-1h3l1-1 1-1h-4l-4 1h-1l-1 1-1 1-1-1 1-1v-1h1v-1h1v-2l1-1v-2l1-1v-3l-1-1v-1h-1v-2l-3-2-5-1-6 1h-1l-2 1-2 2h3l1-1h1l1-1h8v1l-1 1h1v-1h1v-1l1 2h2v1l1 1v4l-1-1-1-1-1 1 1 1v2c-1 0-1 0 0 0v1l-1 1v1h1l-1 1v1l-1 1-1 1v1l-1 1-1 1-1 1v1h-1v1l-1 2h-1v2l-1 1-1 1v3l-1 1 1 1v-1zm11-21v-1 1zm1-2v-1h1l-1 1v1-1zm48 22h-1 1zm-95-6h-1 1zm-3-1v-1l-1 1h1zm3 0v-1 1zm-4-1v-2h3v-1l1 1v1h1v-1c1-1 0-1-1-1l-1-1c1-1-1-2-1-2l-2-1v-1h1l1 1 1 1v-1l1-2v-1h-2l-1 1-1-1h-2l-1 1-2 1v2l1 1h1l-1 1 1 1h1v1l1 1 1 1c1 0 1 0 0 0zm1-4h1-1zm-1-1-1-1v-1l1 1 1 1h-1zm-3-3h1-1zm5-1v1-1zm-4 8h-1 1zm67-1v-1l-1 1h1zm-57-1h-1c0-1 0-1 0 0v1l1-1zm1 0h-1v1l1-1zm54 0v-1 1zm3 0v-1 1zm4 0-1-1v1h1zm-6-1zm3 0zm2 0h-1 1zm6 0c0-1 0-1 0 0zm-5-1 1-1v1h4l-2-1h-1l-1-1-1 1-1 1-1-1h1l1-1h-5l-1 1-1 1 2-1h1v-1h1l-1 2h-1l-1 1h1l1-1h3l1 1v-1zm-7 0h-1l1 1v-1zm-54 0v-1l-1-1v-1h-1v1c1 0 1 0 0 0h-1l2 2h1zm-3-1-1-1-1-1v2l1 1 1-1zm51 0s0 1 0 0zm6 0 1-1h-2v1h1zm37-1h-1l1 1v-1zm-34-1zm25-1h-3c-3 0-3 0 0 0h3zm5 0h-4 4zm-33-1h-1v1l1-1zm26 0h2l-3-1h-4l2 1h3zm-21-2-1-1v1h1zm-29-4v-4l-1 5c0 4 1 3 1-1zm-27 2h-1v1l1-1zm1 0v1-1zm2 0v-2h1v-1l1 1h-1l1 1h1l1-1v-2h1v1h1l1 1 1-1c1 0 0 0 0 0H3l-1-1v-1H1v-2h2v1l-1 1h1v-1 1h1v-1l-2-2v-1l-2-1-1 1h-1l3-1h1v-1H1l-1-1v1h-1l-1-1-1-1v2h-1v-1l-1 1v1h-3v1l-1 2v1h1l1 1h-2v3h2l1 1h1v1l1 1v-1zm-2-2v-1h-1v-1l1 1v1zm1-2h1-1zm5-1v-1 1zm-7-2v-1 1c0 1 0 1 0 0zm5 0 1-1v1h-1zm2 0v-2l1 1c1 0 1 0 0 0l-1 1zm-5-2v-1l1 1h-1zm2 0v-1l1 1h-1zm2 9h-1l1 1v-1zm23 0v-3l1-1 1-1h1-1v-1h-1v1h-1v2l-1 1v3l1-1zm-4-1h-1 1zm-3-1v1-1zm2-1 1-1v1h-1 1l1-1-1-2-1-1v-1 2h1l-1 2h-2l1 1h1zm7 0zm20 0v-1 1zm-19 0-1-1 1 1zM3 87zm24 0h-1 1zM6 86v1-1zm38-1v-1l-1 1 1 1v-1zM2 85zm14 0v-1l-1 1h1zm14-1v-1 1zm13-2-1-1v1h1zm17-2 4-1 1-1h3l1-1h2l-1-1-2 1h-3l-2 1h-3v1h-2v1h2zm24-1h-1l-1-1h-3l2-1h1-2l-2-1-2 1h3-3c-2 0-2 0-1 1h4l1 1h4zm-31-1v-1h1l-1-1v1h-1l1 1zm-13-3v-2l-1-1v-1 3l1 1 1 2-1-2zm26-1v1-1zm-3-1v-1 1zm0-3v-1l-1 1h1zm-3-1v-1h1l-1 1zm3-4h-1v1l1-1zm-35-4v1-1zm37-3v-1 2-1zm-16-2v-1l-1 1h1zm19 63v-1l1 1h-1zm1-1h1v1l-1-1zm17-7h1v1l-1-1z" style="fill:#938eb3;stroke-width:.264583" transform="translate(35 -53)"/><path d="M5 154H-7l-1-2-1-1c0-1 0-2-2-3v-1l-1-1v-1h-1l-1-2h-1c0-1 0-1 0 0h-5l-1-1h-1l-2-2-1-2h-3l-2-1h-1l-1-1h-1l-1-1v-1l-1-1v-8l1-1v-2h1v-1l1-1 1-1v-1h1l1-1v-1h1l1-1 1-1h12l-1-1h-1v-1h-1l-2-1-1-1-1-1v-1l-1-1h-1l-1-1v-1l-1-1-1-1v-8l1-1h1l1-1h1l5-1 5 1h2v-1h-1v-9l1-2v-1l3-3 1-1h7v1h1l1 1 1 1v2l2 2h1v1l1 1h3l-1-2v-2l-1-1v-3l-1-3v-2l1-1 1-3 1-2h1v-1h1v-1h1l2-1h1v-1h1l1-1h2l1-1h4l2-1 2 1h1l1 1h1l1 1 1 1 1 1 1 1v1-1l1-2v-2h1v-2l2-2 1-1h1v-1h2l1-1h17l1 1h2l1 1-1 5v2l-1 1v2h-1v1h-1v3l1 1v1l1 1v-2 1h1v1l3 1h2l1 1v-1h3c0 1 0 1 0 0h5l3 1h3l1 1v1h1v6l-1 1v1l-1 1h1l1 3v7l-1-1 1 1v1h1l-1 1v1h-2v1h-1l1 1v1l-1 1v5h1v2h-1v-1 2h1l-1 1h-1l1 1h-2v1h1-3v2l-1-1-1-1h-1l-1 1v-1h-1v1l-1 1v-1l-1 1-1 2v-1h-1l-1-1h-1l1 1 1 1v1l-1-1-1-1h-1v-1h-2l1 1h-1c0 1 0 1 0 0l-1-1-1-1h-2l-2-1h-4v1h-1c0-1 0-1 0 0v3l-1 1-1 1h1l1 1 1 1h2v1h1l2 1 1 1 2 1 1 1v1h1v1l1 1 1 2 1 1v2l1 2-1 2-1 1-1 1-1 1h-1l-1 1-3 1-1 1h-1l-1 1h-1l-1 1h-4l-3 1H40l-1-1h-2v-1h-3l-1-1h-1v-1h-2l-3-4-1-1-1-1-1 2v2l-1 1v1l-1 1v1l-1 1-5 5-1 1h-3l-3 1H5zm-8-2h1l1-1h1v-1h1l1-1h1l1-1 1-1h3l1-1 1-1h1l2-2 1-1v-1l1-1 1-2 1-1 1-1h2v-1h1l1-1 1-1h1v-2h1v-1l1-1v-1h1v-1l1-1v-1l1-1h1v-1l1-1h3l1-1h1l2-1v-2l1-1 3-3h1v-1h1l1-1 1-1 1-1 2-1 1-1 1-2h2l3-1 5-1v-3h-1l-2-1h-1l-2-1h-1l-3-2h-9v-1h-4l-4 1h-1l-1 1-1 1-1-1 1-1v-1h1v-1h1v-2l1-1v-1l1-1v-4l-1-1v-1h-1v-2l-3-2-5-1-6 1h-1l-2 1-2 2v2s1 0 0 0v2l-1-1-1 1-3 1H8v2l1 1v5l1 3v3l1 8v4l1 4 1-1v-1a64 64 0 0 0-1-19l1-1h1v-3l1 2v1l1 1v-1h2-1v1h1v-1 1l1 1v-2l1-1v-1 1h1v-1h5l1-1v1h-1l1 1h2v2l-1 1-1 1v1h-1v1l-1 1-1 1v1l-1 1-1 1v1l-1 1-1 3v2l-1 1v3-2l1-1 1-1v-2h1v-2l1-1 1-1 1-1 2-2-1 1v2h1v1l-1 1h1v1l1-1-1-2 1-1v-3l2-1 1-1 1 1 1 1v-2l1 1h1l-1 1h3v1l1-1h1v-1h1v1l-1 1h-1 2l1-1h1l-1 1-1 1h1l1-1 1-1-1 2-1 1 2-1h1v-1h1s0-1 0 0l-1 1-1 1-1 1h1l1-1 1 1h-1v2h-1 3l1-1 1-1-1 1-1 1-1 1-1 1-1 1h-1l-1 1h-1l-1 1h-1v1h-1v-1h1-2l-1 1c2 0 1 1-2 1h-3l-1 1h-1l-1 1h-2v1l-2 1h2l1-1h7v1h-1v1h-1v1h-1l-2 1-1 1-1 2-1 1-1 2-1 1v1l-1-3a124 124 0 0 0 0-4l-1 1-1 2-1-1h-1l-1-1v1h-1v4h-1v1l-1 1v1l-1 1-2 2H9l-1 1v4l-1 2v2l1-1v1H7l-1 1v1H5l-1-1v-2l1-1v-2l1-2v-2l1-2v-2H6h1v-1l1-1H6v1l-1 1-1 1v2l-1 1v1l-1 1v2l-1 1v1H0l-1 1v5l-1 1-1-2c0-2 0-3-1-2v1h-1v1l-1-1h1v-1h1l1-2v-1h1-2v-1 1l-1 1v1l-1 1v1h-1v-1l1-1v-1l1-1v-1l1-1-2 1v2h-1v1l-1 1v-2l1-1-1-1v-1l-1 1v-3l1-1 1-1 1-1 1-2h1l1-1h1v-2l-1 1h-2l-1 1h-1l-1 1h-3v1h-1l-1 1h-1l-1 1h-1l-1 1h-2l1-1h1v-1h2l1-1 1-1h1l1-1h1v-1h1l2-1v-1h1l2-1h-3l-1 1h-2l-1 1h-1l-2 1-2 1-2 1-1 1h-1v1-2l1-1h1l1-1h1l2-1v-1h1l1-1h2v-1h-1l-1 1h-1l-1 1h-2l-1 1h-2 1v-1h1l1-1h1v-1h2l1-1h1l3-1 1-1h4l1-1h5l2-1-5-1-5 1h-5l-1 1h-2l-1 1h-1v1h-3l-1 1h-2l-1 1h-1l-1 1h-2v1h-2l-3 1h1v-1h2v-1h2v-1l3-1h1l2-1h1v-1h3l1-1h-2l-2 1h-5l-1 1h-3l-1 1-1-1h2v-1h3l1-1h3l3-1h1l-5-1h-2l-2 1h-3l-1 1 1-1 2-1h8l5-1h-3l-6-1h-5v1h-1v1l-2 1-1 1v1l-1 1v6c0 2 0 3 2 3v1h4l4 1 1 2 2 2h7v1h1v1h1l1 2v1l2 2 1 2v1l1 1h3zm12-9h1v-1l-1 1zm-1-1h1-1zm2 0h1-1zm1-1v1-1zm-31-2v-1l1 1h-1zm-1-3zm27-3v1-1zm-32 0h1-1zm1-1 1-1h1l1-1 1-1h1l1-1 1-1h1l-2 1v1l-1 1-1 1h-1v1h-3zm-6 0v-1 1zm76-26 1-1h-1v1zm-18-2h1-1zm16-1h1-1zm14 0h1v-1h2c0-1 0-1 0 0 1 1 0 1-1 1h-2zm-15-1h1l-1 1v-1zm1 0v-1 1zm-4-1h1-1zm-19-8v-1 2-1zm2 0v-1 1zm-1-4v1-1zm3-4v-1 1zm-9-1 1-1v1h-1zm14-2h1l-1 1v-1zm-7-1h1-1zm6 0zm15 62h6v-1h6l1-1h1l1-1v-1 2h1l1-1v1h1l1-1h2l1-1 1-1h1l1-1-1-1v-2l-1-1v-1l-1-1-1-1-1-1a16 16 0 0 0-3-3v-1h-2v-1l-3-1h-1l-1-1-1 1h-1v-1h-1l-1 1-2-1h-2l-1-1h-1l2 1 1 1h-2l-1-1h-1l-1 1h-2l-1 1v1l-1-1-1 1h1v2l-1-1h-1c0-1 0-1 0 0h-1l1 1v1h-2v-1l-1 1h1l-1 1v1l-1 1v-1h-1v1h1l-1 1h3v3h-1v1l-1-1v-1 2l-1 1 1 1 1 1 1 1h2l-1 1h3v1h1v-2l1 1v1l1 1 1-1v1h2zm-2-3zm7 0h1v-2 2h-1zm0-2h1-1zm3 0h1-1zm-18-1h1-1zm14 0v-2h1v1h1-1v1h-1zm5 0-1-1v-2l1 1v2zm2-3zm-8-2v-1l1 1h-1zm-1-1h1-1zm0-1v-1 1zm-3-1 1-1v1h-1zm-3-2h1v1l-1-1zm-2 0zm14-2 1 1-1-1zm-6 0h1-1zm-1-1c-1 0-1-1 0 0h1-1zm3 0v1-1zm-50 18 1-2h1v-2l-1 1v1l-1 1v1zm3 0v-1 1zm1-2H0h1zm30 0v1-1zm-35 0zm1-2 1-1 1-1 2-2v-1c1 0 1 0 0 0l-2 1-2 2-1 1h-2v1h3zm3-1v-1 1zm-4-1v-1l-1 1h1zm1-1v-1 1zm14-6v-1 3-2zm-13 0h1l1-1h-3l-1 1h2zm-6-1h-1 1zm18-2v-1 2-1zm9-2v1-1zm21-2h-1 1zm9 0-1-1v1h1zm-59-2h-1l-2-1h-3l-8-1-2 1h-1l7 1h10zm15 0-1-1H3l-1-1H1l-1-1h-2l-1-1h-1l-1-1h-1l-1 1 1 1 1 1h3l1 1h2l2 1h2zm42-1h-3 3zm-59-1h-1 1c1 0 1 0 0 0zm-10-1 4 1c4 0 5-1 3-1l-3-1-7 1h3zm77 0h-1l1 1v-1zm-49-1v-2l-1-1v-1l-1-1v-2H3v-1l-1-1v-1l-1-1-1-1v-1l-1-1v-1h-1v-2l-1-1v-1l-1-1v-1l1 1v-1l2-1h1l1 1v1h1l1-1c0 1 0 1 0 0v-2h1v1l1 1h1v-4l1 1v2l1 2v-2l-1-6-1-1v-1l-2-1-1-1v-1l-1-1-1-2-2-1v-1h-3l-1 1h-1l-1 1-1 1v1l-1 1v2l-1 2v1l1 2 1 1 1 1v4h-2c-1 0-2 0 0 0l1 1h1v1l1 1v1h1v1h1v1l1 1v1h1v1l1 1v1l1 1 1 1 1 1v1l1 1v1h1v1l1 1 1 1h1-1zM-5 95v-1h1v-1l1 1v1h-2zm7-1c0 1 0 1 0 0zm-8 0h1-1zm1-1v-1l1 1h-1zm3 0 1-1v1h-1zm-5-1h1-1zm13-2zm48 26h-1 1zm26-3h-1 1zm-73-3zm-18-1h-2v-1h-1 3l-1-1h-1v-1c0-1 0-1 0 0h1l2 1v1l-1-2-1-1v-1h2c0-1 0-1 0 0h1l1 1h1l-1-1-1-1h2l1-1 1 1 1-1-2-1-1-1h-1l-1-1h1v1h2l-1-1v-1h-1l-2-1c-1 0-1 0 0 0l-2-1v-1h-10v1l-1 1-1 2v1l1 1v1l1 1v1l1 1v-1l-1-1 1 1h1l1 1 1 2h1l1 1h1l1 1h1l1 1 1-1zm-4-2h1-1zm4-6zm0-3h1v1l-1-1zm-2-1v-1h-1 2l1 1h-2v1-1zm-2-1zm4 12v1-1zm36-1h1-1v1-1zm9-3zm47-6h-1l1 1v-1zm-9-2h-3c-3 0-3 0 0 0h3zm5 0h-4 4zm-33-1h-1v1l1-1zm26 0h2l-3-1h-4l2 1h3zm-47 0v-1l-1 1h1zm26-2-1-1v1h1zm-5-5v-1 1zm0-3v-1l-1 1 1 1v-1zm-1-3-1-1v1h1zm17-2 4-1 1-1h3l1-1h2v-1l-3 1h-3l-2 1h-3v1h-2v1h2zm24-1h-1l-1-1h-3l2-1h1-2l-2-1-2 1h3-3c-2 0-2 0-1 1h4l1 1h4zm-31-1v-1h1l-1-1v1h-1l1 1zm-13-3v-2l-1-1v-1 3l1 1 1 2-1-2zm26-1v1-1zm-3-1v-1 1zm0-3v-1l-1 1h1zm-3-1v-1h1l-1 1zm3-4h-1v1l1-1zm-35-4v1-1zm37-3v-1 2-1zm-16-2v-1l-1 1h1zm19 63v-1l1 1h-1zm1-1h1v1l-1-1zm17-7h1v1l-1-1z" style="fill:#f2c814;stroke-width:.264583" transform="translate(35 -53)"/><path d="M5 154H-7l-1-2-1-1c0-1 0-2-2-3v-1l-1-1v-1h-1l-1-2h-1c0-1 0-1 0 0h-5l-1-1h-1l-2-2-1-2h-3l-2-1h-1l-1-1h-1l-1-1v-1l-1-1v-8l1-1v-2h1v-1l1-1 1-1v-1h1l1-1v-1h1l1-1 1-1h12l-1-1h-1v-1h-1l-2-1-1-1-1-1v-1l-1-1h-1l-1-1v-1l-1-1-1-1v-8l1-1h1l1-1h1l5-1 5 1h2v-1h-1v-9l1-2v-1l3-3 1-1h7v1h1l1 1 1 1v2l2 2h1v1l1 1h3l-1-2v-2l-1-1v-3l-1-3v-2l1-1 1-3 1-2h1v-1h1v-1h1l2-1h1v-1h1l1-1h2l1-1h4l2-1 2 1h1l1 1h1l1 1 1 1 1 1 1 1v1-1l1-2v-2h1v-2l2-2 1-1h1v-1h2l1-1h17l1 1h2l1 1-1 5v2l-1 1v2h-1v1h-1v3l1 1v1l1 1v-2 1h1v1l3 1h2l1 1v-1h3c0 1 0 1 0 0h5l3 1h3l1 1v1h1v6l-1 1v1l-1 1h1l1 3v7l-1-1 1 1v1h1l-1 1v1h-2v1h-1l1 1v1l-1 1v5h1v2h-1v-1 2h1l-1 1h-1l1 1h-2v1h1-3v2l-1-1-1-1h-1l-1 1v-1h-1v1l-1 1v-1l-1 1-1 2v-1h-1l-1-1h-1l1 1 1 1v1l-1-1-1-1h-1v-1h-2l1 1h-1c0 1 0 1 0 0l-1-1-1-1h-2l-2-1h-4v1h-1c0-1 0-1 0 0v3l-1 1-1 1h1l1 1 1 1h2v1h1l2 1 1 1 2 1 1 1v1h1v1l1 1 1 2 1 1v2l1 2-1 2-1 1-1 1-1 1h-1l-1 1-3 1-1 1h-1l-1 1h-1l-1 1h-4l-3 1H40l-1-1h-2v-1h-3l-1-1h-1v-1h-2l-3-4-1-1-1-1-1 2v2l-1 1v1l-1 1v1l-1 1-5 5-1 1h-3l-3 1H5zm-8-2h1l1-1h1v-1h1l1-1h1l1-1 1-1h3l1-1 1-1h1l2-2 1-1v-1l1-1 1-2 1-1 1-1h2v-1h1l1-1 1-1h1v-2h1v-1l1-1v-1h1v-1l1-1v-1l1-1h1v-1l1-1h3l1-1h1l2-1 1-1v-3l3-2h1v-1h3l-1 1v1l-1 1v1l-1 1v1h-1l4 1 1-1v-2l1-1v-3l1-2v-2l1-1 1-2h2l3-1 5-1v-3h-1l-2-1h-1l-2-1h-1l-3-2h-3l-1-1c0-1 0-1 0 0l-3 1h-2v-1h-4l-4 1h-1l-1 1-1 1-1-1 1-1v-1h1v-1h1v-2l1-1v-1l1-1 1-2-1-2-1-1v-1h-1v-2l-3-2-5-1-6 1h-1l-1 1h-1l-1 1-1-1-2-2h-1l1-1 1-1v-1l-1-1-1-1v6l2 1v1l1 2v1s1 0 0 0v2l-1-1-1 1-3 1H8v2l1 1v5l1 3v3l1 8v4l1 4 1-1v-1a64 64 0 0 0-1-19l1-1h1v-3l1 2v1l1 1v-1h2-1v1h1v-1 1l1 1v-2l1-1v-1 1h1v-1h5l1-1v1h-1l1 1h2v2l-1 1-1 1v1h-1v1l-1 1-1 1v1l-1 1-1 1v1l-1 1-1 3v2l-1 1v3-2l1-1 1-1v-2h1v-2l1-1 1-1 1-1 2-2-1 1v2h1v1l-1 1h1v1l1-1-1-2 1-1v-3l2-1 1-1 1 1 1 1v-2l1 1h1l-1 1h3v1l1-1h1v-1h1v1l-1 1h-1 2l1-1h1l-1 1-1 1h1l1-1 1-1-1 2-1 1 2-1h1v-1h1s0-1 0 0l-1 1-1 1-1 1h1l1-1 1 1h-1v2h-1 3l1-1 1-1-1 1-1 1-1 1-1 1-1 1h-1l-1 1h-1l-1 1h-1v1h-1v-1h1-2l-1 1c2 0 1 1-2 1h-3l-1 1h-1l-1 1h-2v1l-2 1h2l1-1h7v1h-1v1h-1v1h-1l-2 1-1 1-1 2-1 1-1 2-1 1v1l-1-3a124 124 0 0 0 0-4l-1 1-1 2-1-1h-1l-1-1v1h-1v4h-1v1l-1 1v1l-1 1-2 2H9l-1 1v4l-1 2v2l1-1v1H7l-1 1v1H5l-1-1v-2l1-1v-2l1-2v-2l1-2v-2H6h1v-1l1-1H6v1l-1 1-1 1v2l-1 1v1l-1 1v2l-1 1v1H0l-1 1v5l-1 1-1-2c0-2 0-3-1-2v1h-1v1l-1-1h1v-1h1l1-2v-1h1-2v-1 1l-1 1v1l-1 1v1h-1v-1l1-1v-1l1-1v-1l1-1-2 1v2h-1v1l-1 1v-2l1-1-1-1v-1l-1 1v-3l1-1 1-1 1-1 1-2h1l1-1h1v-2l-1 1h-2l-1 1h-1l-1 1h-3v1h-1l-1 1h-1l-1 1h-1l-1 1h-2l1-1h1v-1h2l1-1 1-1h1l1-1h1v-1h1l2-1v-1h1l2-1h-3l-1 1h-2l-1 1h-1l-2 1-2 1-2 1-1 1h-1v1-2l1-1h1l1-1h1l2-1v-1h1l1-1h2v-1h-1l-1 1h-1l-1 1h-2l-1 1h-2 1v-1h1l1-1h1v-1h2l1-1h1l3-1 1-1h4l1-1h5l2-1-5-1-5 1h-5l-1 1h-2l-1 1h-1v1h-3l-1 1h-2l-1 1h-1l-1 1h-2v1h-2l-3 1h1v-1h2v-1h2v-1l3-1h1l2-1h1v-1h3l1-1h-2l-2 1h-5l-1 1h-3l-1 1-1-1h2v-1h3l1-1h3l3-1h1l-5-1h-2l-2 1h-3l-1 1 1-1 2-1h8l5-1h-3l-6-1h-5v1h-1v1l-2 1-1 1v1l-1 1v6c0 2 0 3 2 3v1h4l4 1 1 2 2 2h7v1h1v1h1l1 2v1l2 2 1 2v1l1 1h3zm12-9h1v-1l-1 1zm-1-1h1-1zm2 0h1-1zm1-1v1-1zm-31-2v-1l1 1h-1zm-1-3zm27-3v1-1zm-32 0h1-1zm1-1 1-1h1l1-1 1-1h1l1-1 1-1h1l-2 1v1l-1 1-1 1h-1v1h-3zm-6 0v-1 1zm76-26 1-1h-1v1zm-18-2h1-1zm16-1h1-1zm14 0h1v-1h2c0-1 0-1 0 0 1 1 0 1-1 1h-2zm-15-1h1l-1 1v-1zm1 0v-1 1zm-4-1h1-1zm-19-8v-1 2-1zm2 0v-1 1zm-1-4v1-1zm3-4v-1 1zm-9-1 1-1v1h-1zm14-2h1l-1 1v-1zm-7-1h1-1zm6 0zm15 62h6v-1h6l1-1h1l1-1v-1 2h1l1-1v1h1l1-1h2l1-1 1-1h1l1-1-1-1v-2l-1-1v-1l-1-1-1-1-1-1a16 16 0 0 0-3-3v-1h-2v-1l-3-1h-1l-1-1-1 1h-1v-1h-1l-1 1-2-1h-2l-1-1h-1l2 1 1 1h-2l-1-1h-1l-1 1h-2l-1 1v1l-1-1-1 1h1v2l-1-1h-1c0-1 0-1 0 0h-1l1 1v1h-2v-1l-1 1h1l-1 1v1l-1 1v-1h-1v1h1l-1 1h3v3h-1v1l-1-1v-1 2l-1 1 1 1 1 1 1 1h2l-1 1h3v1h1v-2l1 1v1l1 1 1-1v1h2zm-2-3zm7 0h1v-2 2h-1zm0-2h1-1zm3 0h1-1zm-18-1h1-1zm14 0v-2h1v1h1-1v1h-1zm5 0-1-1v-2l1 1v2zm2-3zm-8-2v-1l1 1h-1zm-1-1h1-1zm0-1v-1 1zm-3-1 1-1v1h-1zm-3-2h1v1l-1-1zm-2 0zm14-2 1 1-1-1zm-6 0h1-1zm-1-1c-1 0-1-1 0 0h1-1zm3 0v1-1zm-50 18 1-2h1v-2l-1 1v1l-1 1v1zm3 0v-1 1zm1-2H0h1zm30 0v1-1zm-35 0zm1-2 1-1 1-1 2-2v-1c1 0 1 0 0 0l-2 1-2 2-1 1h-2v1h3zm3-1v-1 1zm-4-1v-1l-1 1h1zm1-1v-1 1zm14-6v-1 3-2zm-13 0h1l1-1h-3l-1 1h2zm-6-1h-1 1zm18-2v-1 2-1zm9-2v1-1zm21-2h-1 1zm9 0-1-1v1h1zm-59-2h-1l-2-1h-3l-8-1-2 1h-1l7 1h10zm15 0-1-1H3l-1-1H1l-1-1h-2l-1-1h-1l-1-1h-1l-1 1 1 1 1 1h3l1 1h2l2 1h2zm-17-2h-1 1c1 0 1 0 0 0zm-10-1 4 1c4 0 5-1 3-1l-3-1-7 1h3zm77 0h-1l1 1v-1zm-49-1v-2l-1-1v-1l-1-1v-2H3v-1l-1-1v-1l-1-1-1-1v-1l-1-1v-1h-1v-2l-1-1v-1l-1-1v-1l1 1v-1l2-1h1l1 1v1h1l1-1c0 1 0 1 0 0v-2h1v1l1 1h1v-4l1 1v2l1 2v-2l-1-6-1-1v-1l-2-1-1-1v-1l-1-1-1-2-2-1v-1h-3l-1 1h-1l-1 1-1 1v1l-1 1v2l-1 2v1l1 2 1 1 1 1v4h-2c-1 0-2 0 0 0l1 1h1v1l1 1v1h1v1h1v1l1 1v1h1v1l1 1v1l1 1 1 1 1 1v1l1 1v1h1v1l1 1 1 1h1-1zM-5 95v-1h1v-1l1 1v1h-2zm7-1c0 1 0 1 0 0zm-8 0h1-1zm1-1v-1l1 1h-1zm3 0 1-1v1h-1zm-5-1h1-1zm13-2zm48 26h-1 1zm15-3 1-1h1l1-1h1l1-1h1v-1h1l1-1 1-1 2-1-1-1h-4l-1-1h-4l-1-1h-2l1 1 1 1 1 1h1v1h2l2 1-1 1-1-1h-1l-2-1h-4v-1h-2v-1l-1 1 1 1h1v1h1l1 1h2v1h-2l-2 1v1h-1l-1-1h-1v-1h-2v2h1l1 1h7zm11 0h-1 1zm-73-3zm-18-1h-2v-1h-1 3l-1-1h-1v-1c0-1 0-1 0 0h1l2 1v1l-1-2-1-1v-1h2c0-1 0-1 0 0h1l1 1h1l-1-1-1-1h2l1-1 1 1 1-1-2-1-1-1h-1l-1-1h1v1h2l-1-1v-1h-1l-2-1c-1 0-1 0 0 0l-2-1v-1h-10v1l-1 1-1 2v1l1 1v1l1 1v1l1 1v-1l-1-1 1 1h1l1 1 1 2h1l1 1h1l1 1h1l1 1 1-1zm-4-2h1-1zm4-6zm0-3h1v1l-1-1zm-2-1v-1h-1 2l1 1h-2v1-1zm-2-1zm4 12v1-1zm36-1h1-1v1-1zm56-3h1v-4l-1-1-1-1-3-1v-1H65v1h2l1 1h2l1 1h3l2 1h1l1 1h2v1h-4l-1-1h-4 1v1l2 1h2l1 1h1l2 1 1-1zm-3-5v1-1zm-44 5zm10-9h-1v1l1-1zm20 0-2-1h-4l-3-1-1 1h2l1 1v1h7zm6 0h2l-3-1h-4l2 1h3zm-47 0v-1l-1 1h1zm28-2h-1 1zm-2 0-1-1v1h1zm30-4h-1v1l1-1zm-35-1v-1 1zm37 0 1-1 1-1 1-2h1v-5h-2l-1-1h-3l2-1h1-2l-2-1-2 1h3-3c-2 0-2 0-1 1 0 0 1 0 0 0l3 1h3l1 1h1l-1 1h1l1 1-1 1-1 1h-1l1 1v1h-1l-1 2h1zm2-9h1-1zm-39 6v-1l-1 1 1 1v-1zm27-2h-1l-1 1 2-1zm-28-3-1-1v-2l-1-1v-2l-1-2v-3l1-1v-2l1-2 1-1v-1l2-1 1-1h2v1-1h1l1-1h-1v-1h2v-1l1-1h1l-2-1-1 1h-1v-1l-1 1h-2v1h-2l-1 1-1 1-1 2h-1v2l-1 4v7l1 1v1l1 1v2h1v3l1-2zm3-21 1-1 1-1-1 1v1h-1zm-2-1v1-1zm36 22h-1 1zm-20 0 4-1 1-1h3l1-1h2v-1l-3 1h-3l-2 1h-3v1h-2v1h2zm9 0-1-1-2 1h3zm-53-2h-1l1 1v-1zm55 0h-1v1l1-1zm-18 0v-1h1l-1-1v1h-1l1 1zm-32-3h-1 1zm45-1v1-1zm-53-2h1v-1h-1l-1-1v-1h1l1 1 1-1 2-1h2l1-1h1c0-1 0-1 0 0h1l-1-2h-3v-1h-1l-1 1-1 1h-1l-1 1-1 1-1 1v4l2-1zm3-6 1-1v1h-1zm0 7v-1l-1 1h1zm47 0v-1 1zm0-3v-1l-1 1h1zm-3-1v-1h1l-1 1zm1-3h1l1-1v-1h1v-1c-1 0-1 0 0 0v-1l1-2v-3h-1l-1-1h-8l-1-1v1l-1 1h9v1h1v4l-1 1v2l-1 1v1-1zm-27 0-3-3h-1v-1h-2l-1-1h-2l-2 1h-1l1 1h-3l-1 1h3v1h5l1 1h1v-1h-1l1-1v1h1l2 1h2zm16-5h-1 1zm18 58v-1l1 1h-1zm1-1h1v1l-1-1zm17-7h1v1l-1-1z" style="fill:#867baa;stroke-width:.264583" transform="translate(35 -53)"/><path d="M5 154H-7l-1-2-1-1c0-1 0-2-2-3v-1l-1-1v-1h-1l-1-2h-1c0-1 0-1 0 0h-5l-1-1h-1l-2-2v-1l-4-1-2-1h-1l-1-1h-1l-1-1v-1l-1-1v-7l1-2v-2h1v-1l1-1 1-1v-1l1-1h1l1-1v-1h1l1-1h12l-1-1-2-1-1-1-2-1-1-1v-1l-1-1h-1l-1-1v-1l-1-1-1-1v-8l2-2h2l5-1 5 1h2v-1h-1v-9l1-2v-1l3-3 1-1h7v1h1l2 2v2l2 2 1 1 1 1h3l-1-2v-2l-1-1v-3l-1-3v-2l1-1v-3h1v-1l1-1h1v-1h1l1-1 1-1h2v-1h1l1-1h1l1-1h5l2-1 2 1h1l1 1h1l1 1 1 1 1 1 1 1v1-1l1-2v-2h1v-2l2-2 1-1h1v-1h2l1-1h17l1 1h2l1 3-1 3v2l-1 1v2h-1v1h-1v3l1 1v1l1 1v-2 1h1v1l3 1h2v1l1-1h3c0 1 0 1 0 0h5l3 1h3l1 1v1h1v6l-1 1v1l-1 1h1l1 3v7l-1-1 1 1v1h1l-1 1v1h-2v1h-1l1 1v1l-1 1v5h1v2h-1v-1 2h1l-1 1h-1l1 1h-2v1h1-3v2l-1-1-1-1h-1l-1 1v-1h-1v1l-1 1v-1l-1 1-1 2v-1h-1l-1-1h-1l1 1 1 1v1l-1-1-1-1h-1v-1h-2l1 1h-1c0 1 0 1 0 0l-1-1-1-1h-2l-2-1h-4v1h-1c0-1 0-1 0 0v3l-1 1-1 1h1l1 1 1 1h2v1h1l1 1 2 1 2 2 2 1v1l1 1 1 2 1 1v2l1 2-1 2-1 1-2 1v1h-1l-1 1h-1l-1 1h-1l-1 1h-1l-1 1h-1l-1 1h-4l-3 1H39v-1h-2v-1h-3v-1h-2v-1h-2l-3-4-1-1-1-1-1 2v2l-1 1v1l-1 1v1l-1 1-5 5-1 1h-3l-3 1H5zm-7-2 1-1h1v-1h1l1-1h1l3-2h1l3-2h1l2-2 1-2h1v-1l1-1 3-3h1v-1h1l1-1 1-1h1v-2h1v-1l1-1v-1h1v-1l1-1v-1l1-1h1v-1l1-1h3l1-1h1l2-1 1-1v-3l3-2h1v-1h3l-1 1v1l-1 1v1l-1 1v1h-1l4 1 1-1v-2l1-1v-3l1-2v-2l1-1v-1h1l2-1 3-1 5-1v-3h-1l-1-1h-1l-1-1h-1l-1-1h-3l-1-1h-2l-2-1c0-1 0-1 0 0l-3 1-2-1h-4l-4 1h-1l-1 1-1 1-1-1 1-1v-1h1v-1h1v-2l1-1v-1l1-2v-3l-1-1v-1h-1v-2l-3-2-5-1-6 1h-1l-1 1h-1l-1 1-1-1-2-2h-1l1-1 1-1v-1l-1-1-1-1v6l2 1v1l1 2-1 1c1 0 0 0 0 0v1h-1v1h-1v1H7v-1l-1-1v-1l-1-1-2-1-1-2v-1l-2-1-1-1h-3l-1 1h-1l-2 3-2 3v4l1 1 1 1v1l1 2c0 2 0 2-3 2l-2-1h-1l-1-1h-6l-2 1v1l-3 3 1 1v1l1 1v1h1l1 2h1l1 1 1 1 2 2 2 1c1 0 0 0 0 0v-1 1h3l1 1h4-1v-1l-1-1 1-1h1l1-1h1v1-2l1-1v-1h1l1 2v1h1v1l1 1v1h1v1l1 2h1v1l1 1 1 1 1 1v1-2l-1-1v-2H5v-1l-1-1v-2H3v-2l-1-1-1-1v-1H0v-1l-1-1v-2l-1-1v-1h1v-1c-1 0-1 0 0 0l1 1 2 2 1 1 1 1v3h1v1-3H4v-3l1 1v-2h1c0-2 0-2 1-1h1v-2l1-1-1-5 1 2v5l1 3v3l1 8v8h1l1-1v-1a70 70 0 0 0 0-17l1 1v-2l1 1v2l1 2v3-3c0-1 0-2 1-1h1c0 1 1 1 1-1v-2c0-2 1-2 1-1v1h1v-1l1-1 2-1 1 1v-1h3v1l-1 2-1 1h-1v1l-1 1v1l-1 1-1 1-1 2v2h-1v2l-1 4v2-2l1-1v-2h1v-2h1v-1l1-1v-1h1l1 1h1c0 1 0 2 1 1-1 1 0 1 1 1v-5l1-1v1l1 1v-1h2v1h1v1l1-1h4l-1 2h-1 2l1-1 1-1v1l-1 1h2s1 0 0 0l-1 1h1v1h1v1-1h1l-1 1-1 1h-1l-2 1h-3l-1 1h-1l-1 1h-2l-1 1h-1l-1 1-2 1-2 1h1l1-1h7l1 1h-1v1h-1v1h-1l-2 1-1 1-1 1v1l-1 1v1l-1 1v1h-1v1-9c1 0 1 0 0 0h-2l-1 1-1 1-1 1h-1l-1 1-1 1-2 1h-1c0-1-1-1-1 1h-1v2H9v2H8v3l-1 3v5l-1 1v1l-1 1v-5l1-2v-3l1-1v-3l1-1v-2l-2 2H5v1l-1 1v2l-1 1v1H2v2l-1 1v-2l1-1H1v1l-1 1v1l-1 1-1-1 1-1 1-2v-1l1-1v-1c1 0 1 0 0 0 0-1 0-1 0 0H0v1l-1 1v1l-1 2-1 1-1 1v1h-1v2h-1v1-2l1-1v-1l1-1v-1l1-1h-1v1h-1v1l-1-1h1l-1-1v-1l-2 1h-1l5-5 2-2-1-1-1 1h-2v1h-2l-1 1h-2l-2 1v1h-2v1h-2v1l-1-1h1l1-1h1l1-1 1-1h2l1-1 3-1 1-1h1l1-1h1l1-1h2v-1h1-5l-2 1h-2l-1 1h-2l-1 1h-1l-1 1h-1l-2 1v1h-1v-1l1-1h1l1-1h1l1-1h1l1-1h1l1-1h2-4l-1 1h-2l-1 1h-1l-1 1v-1l1-1h1l1-1h1l1-1h1l1-1h3l1-1h4l1-1h2l5-1a38 38 0 0 0-18 1h-7l-1 1-1-1h1l3-1h3-1l-4-1h-4 5l5-1h-1l-2-1h-6 12l1 1 1-1h-3l-2-1h-2l-1-1h-4 9-1l-1-1h-2l-2-1h-7l-2 2-2 2h-1l-1 1v1l-1 1-1 1v1h-1v8l2 2v1h4l4 1 1 2 1 1v1h8v1h1v1l1 1 1 1v2h1l2 3v1l1 1h4zm-1-3v-3h1-2v-1l1-1 1-1v-1h1v4l-1 2c0 1 0 2-1 1zm3-7h1-1zm-20-7v-1l1 1h-1zm1-1h1-1zm-3-3 3-3v1l-1 1-2 1zm-4-2 1-1h1v1h-2zm3-1v-1l1 1h-1s-1 0 0 0zm4 0 1-1v1h-1zm-3-1h1l1-1h1l1-1h4-2l-1 1h-2v1h-3zm-3-2c-1 0-1 0 0 0h1-1zm2-1h2l-1 1-1-1zm-7-1h1-1zm2-1h1l-1 1v-1zm2-2zm1-2h1-1zm2 0h1-1zm57-3h1v1l-1-1zm-41-9zm2 0v-1l1 1h-1zm39 0v-1 1zm4 0v-1l1 1h-1zm-41-3v1-1zm20-1 1-1v1h-1zm-24-3-1-1v-1l1 1 1 1h-1zm50 44h6v-1h6l1-1h1l1-1v-1 2h1l1-1v1h1l1-1h2l1-1 1-1h1l1-1-1-1v-2l-1-1v-1l-1-1-1-1-1-1a16 16 0 0 0-3-3v-1h-2v-1l-3-1h-1l-1-1-1 1h-1v-1h-1l-1 1-2-1h-2l-1-1h-1l2 1 1 1h-2l-1-1h-1l-1 1h-2l-1 1v1l-1-1-1 1h1v2l-1-1h-1c0-1 0-1 0 0h-1l1 1v1h-2v-1l-1 1h1l-1 1v1l-1 1v-1h-1v1h1l-1 1h3v3h-1v1l-1-1v-1 2l-1 1 1 1 1 1 1 1h2l-1 1h3v1h1v-2l1 1v1l1 1 1-1v1h2zm-2-3zm7 0h1v-2 2h-1zm0-2h1-1zm3 0h1-1zm-18-1h1-1zm14 0v-2h1v1h1-1v1h-1zm5 0-1-1v-2l1 1v2zm2-3zm-8-2v-1l1 1h-1zm-1-1h1-1zm0-1v-1 1zm-3-1 1-1v1h-1zm-3-2h1v1l-1-1zm-2 0zm14-2 1 1-1-1zm-6 0h1-1zm-1-1c-1 0-1-1 0 0h1-1zm3 0v1-1zm-16 16v1-1zm-33-2v-1l1-1 1-1v-1h1v-1H0v1h-1l-1 2h-1l-2 1 1-1 1-1h1v-1h-1l-1 2h-2v2h4zm6-5zm-10-6h-1 1zm16 0v-2H9l1 2zm30-5h-1 1zm9 0-1-1v1h1zm-43-2-2-1H3l-1-1H1l-1-1h-1l-1-1h-2l-1-1h-1v1h-1v1h1l1 1h3v1h2l2 1h4zm49-3h-1l1 1v-1zm-1-1h-1 1zm15-3 1-1h1l1-1h1l1-1h1v-1h1l1-1 1-1 2-1-1-1h-4l-1-1h-4l-1-1h-2l1 1 1 1 1 1h1v1h2l2 1-1 1-1-1h-1l-2-1h-4v-1h-2v-1l-1 1 1 1h1v1h1l1 1h2v1h-2l-2 1v1h-1l-1-1h-1v-1h-2v2h1l1 1h7zm11 0h-1 1zm-82-1zm-4-1v1-1zm3 0v1-1zm3 0h-1c-1 0-1 0 0 0h1zm7-1v-1l-1-2v2l1 2v-1zm-11 0h-1v-1h-2 1l1 1h1zm2 0h-1 1zm1 0h-1 1zm-2 0v-1 1zm-1-1v-1 1zm35-2zm-13-1h-1 1zm63-2h1v-4l-1-1-1-1-3-1v-1H65v1h2l1 1h2l1 1h3l2 1h1l1 1h2v1h-4l-1-1h-4 1v1l2 1h2l1 1h1l2 1 1-1zm-3-5v1-1zm-76 2H1h1zm42-6h-1v1l1-1zm20 0-2-1h-4l-3-1-1 1h2l1 1v1h7zm6 0h2l-3-1h-4l2 1h3zm-19-2h-1 1zm-2 0-1-1v1h1zm30-4h-1v1l1-1zm-35-1v-1 1zm37 0 1-1 1-1 1-2h1v-5h-2l-1-1h-3l2-1h1-2l-2-1-2 1h3-3c-2 0-2 0-1 1 0 0 1 0 0 0l3 1h3l1 1h1l-1 1h1l1 1-1 1-1 1h-1l1 1v1h-1l-1 2h1zm2-9h1-1zm-39 6v-1l-1 1 1 1v-1zm27-2h-1l-1 1 2-1zm-28-3-1-1v-2l-1-1v-2l-1-2v-3l1-1v-2l1-2 1-1v-1l2-1 1-1h2v1-1h1l1-1h-1v-1h2v-1l1-1h1l-2-1-1 1h-1v-1l-1 1h-2v1h-2l-1 1-1 1-1 2h-1v2l-1 4v7l1 1v1l1 1v2h1v3l1-2zm3-21 1-1 1-1-1 1v1h-1zm-2-1v1-1zm36 22h-1 1zm-20 0 4-1 1-1h3l1-1h2l1-1-4 1h-4l-1 1h-3v1h-2v1h2zm9 0-1-1-2 1h3zm-53-2h-1l1 1v-1zm55 0h-1v1l1-1zm-18 0v-1h1l-1-1v1h-1l1 1zm-32-3h-1 1zm45-1v1-1zm-53-2h1v-1h-1l-1-1v-1h1l1 1 1-1 2-1h2l1-1h1c0-1 0-1 0 0h1l-1-2h-3v-1h-1l-1 1-1 1h-1l-1 1-1 1-1 1v4l2-1zm3-6 1-1v1h-1zm0 7v-1l-1 1h1zm47 0v-1 1zm0-3v-1l-1 1h1zm-3-1v-1h1l-1 1zm1-3h1l1-1v-1h1v-1c-1 0-1 0 0 0v-1l1-2v-3h-1l-1-1h-8l-1-1v1l-1 1h9v1h1v4l-1 1v2l-1 1v1-1zm-27 0-3-3h-1v-1h-2l-1-1h-2l-2 1h-1l1 1h-3l-1 1h3v1h5l1 1h1v-1h-1l1-1v1h1l2 1h2zm16-5h-1 1zm18 58v-1l1 1h-1zm1-1h1v1l-1-1zm17-7h1v1l-1-1z" style="fill:#eba310;stroke-width:.264583" transform="translate(35 -53)"/><path d="M5 154H-7l-1-2-1-1c0-1 0-2-2-3v-1l-1-1v-1h-1l-1-2h-1c0-1 0-1 0 0h-5l-1-1h-1l-2-2v-1l-4-1-2-1h-1l-1-1h-1l-1-1v-1l-1-1v-7l1-2v-2h1v-1l1-1 1-1v-1l1-1h1l1-1v-1h1l1-1h12l-1-1-2-1-1-1-2-1-1-1v-1l-1-1h-1l-1-1v-1l-1-1-1-1v-8l2-2h2l5-1 5 1h2v-1h-1v-9l1-2v-1l3-3 1-1h7v1h1l2 2v2l2 2 1 1 1 1h3l-1-2v-2l-1-1v-3l-1-3v-2l1-1v-3h1v-1l1-1h1v-1h1l1-1 1-1h2v-1h1l1-1h1l1-1h5l2-1 2 1h1l1 1h1l1 1 1 1 1 1 1 1v1-1l1-2v-2h1v-2l2-2 1-1h1v-1h2l1-1h17l1 1h2l1 3-1 3v2l-1 1v2h-1v1h-1v3l1 1v1l1 1v-2 1h1v1l3 1h2v1l1-1h3c0 1 0 1 0 0h5l3 1h3l1 1v1h1v6l-1 1v1l-1 1h1l1 3v7l-1-1 1 1v1h1l-1 1v1h-2v1h-1l1 1v1l-1 1v5h1v2h-1v-1 2h1l-1 1h-1l1 1h-2v1h1-3v2l-1-1-1-1h-1l-1 1v-1h-1v1l-1 1v-1l-1 1-1 2v-1h-1l-1-1h-1l1 1 1 1v1l-1-1-1-1h-1v-1h-2l1 1h-1c0 1 0 1 0 0l-1-1-1-1h-2l-2-1h-4v1h-1c0-1 0-1 0 0v3l-1 1-1 1h1l1 1 1 1h2v1h1l1 1 2 1 2 2 2 1v1l1 1 1 2 1 1v2l1 2-1 2-1 1-2 1v1h-1l-1 1h-1l-1 1h-1l-1 1h-1l-1 1h-1l-1 1h-4l-3 1H39v-1h-2v-1h-3v-1h-2v-1h-2l-3-4-1-1-1-1-1 2v2l-1 1v1l-1 1v1l-1 1-5 5-1 1h-3l-3 1H5zm-7-2 1-1h1v-1h1l1-1h1l3-2h1l3-2h1l2-2 1-2h1v-1l1-1 3-3h1v-1h1l1-1 1-1h1v-2h1v-1l1-1v-1h1v-1l1-1v-1l1-1h1v-1l1-1h3l1-1h1l2-1 3-3 1-2 1-1 1-1v1l-1 1v2l-1 1v1l2 1 3-1v-2l1-1v-2l1-2v-3l1-1v-1h1l2-1v-1l1 1 1 1 1 1 1 2 1 1h2v1l2 1h8l1-1 1-1h2v-1h1l1-1h1l1-1 1-1 2-2 1-1v-5l-2-1h-1l-1-2H68l-2-1 6-1h4l1-1h1v-1h2l1-3 1-1 1-1 1-1v-1l1-1v-4l-2-1-1-1h-3l2-1h1-2l-2-1-2 1h3-2l-4 1h-4l-1 1h-3l-1 1-2 1h-1v1h-1 3l1-1h3v1c-1 1 0 1 1 1l1 1h-1 4l1-1h1l2-1h2l1-1 1 1h-2v1h-2l-1 1h-2l-2 2h2c0-1 0-1 0 0h6v-1 2h-1l-1 1-1 1v1h-1l-1 1v1l-1-1h-2v1h-2l-2 1H53l-2-1-1 1h-1l-1-1 1 2h2l1 1h1l4 1h5l2 2c2 0 2 0 0 0h-1v1l-2 1h-3l-1-1h-1l-1-1h-3l-1-1h-1l-3-1v-2h-1v2h1l-3 1h-2v-1h-1v-1h-2c0 1 0 1 0 0h-4v1l-1 1h-2l-1 1v1l-1-1 1-1v-1h1v-1h1v-2l1-1v-1l2-2h5-2v-1h-2l-3-3v-1h-1v-2l-1-1-1-1-2-2-1-1c-1-1 0-1 1-1h1v-1h1v-1l-1-1v-1l2 1 1-1h2v-1l1-1v-2l-1-1-1-2-1-1-1-1h-1v-1h-2l-1-1h-2l-2 1h-2l-1 1h-2l-2 1-1 1-1 1h-1l-3 4-1 4v3l1 1v2l1 1 1 1 1 2-1 1c1 0 0 0 0 0v1h-1v1h-1v1H7v-1l-1-1v-1l-1-1-2-1-1-2v-1l-2-1-1-1h-3l-1 1h-1l-2 3-2 3v4l1 1 1 1v1l1 2c0 2 0 2-3 2l-2-1h-1l-1-1h-6l-2 1v1l-3 3 1 1v1l1 1v1h1l1 2h1l1 1 1 1 2 2 2 1c1 0 0 0 0 0v-1 1h3l1 1h4-1v-1l-1-1 1-1h1l1-1h1v1-2l1-1v-1h1l1 2v1h1v1l1 1v1h1v1l1 2h1v1l1 1 1 1 1 1v1-2l-1-1v-2H5v-1l-1-1v-2H3v-2l-1-1-1-1v-1H0v-1l-1-1v-2l-1-1v-1h1v-1c-1 0-1 0 0 0l1 1 2 2 1 1 1 1v3h1v1-3H4v-3l1 1v-2h1c0-2 0-2 1-1h1v-2l1-1-1-5 1 2v5l1 3v3l1 8v8h1l1-1v-1a70 70 0 0 0 0-17l1 1v-2l1 1v2l1 2v3-3c0-1 0-2 1-1h1c0 1 1 1 1-1v-2c0-2 1-2 1-1v1h1v-1l1-1 2-1 1 1v-1h3v1l-1 2-1 1h-1v1l-1 1v1l-1 1-1 1-1 2v2h-1v2l-1 4v2-2l1-1v-2h1v-2h1v-1l1-1v-1h1l1 1h1c0 1 0 2 1 1-1 1 0 1 1 1v-5l1-1v1l1 1v-1h2v1h1v1l1-1h4l-1 2h-1 2l1-1 1-1v1l-1 1h2s1 0 0 0l-1 1h1v1h1v1-1h1l-1 1-1 1h-1l-2 1h-3l-1 1h-1l-1 1h-2l-1 1h-1l-1 1-2 1-2 1h1l1-1h7l1 1h-1v1h-1v1h-1l-2 1-1 1-1 1v1l-1 1v1l-1 1v1h-1v1-9c1 0 1 0 0 0h-2l-1 1-1 1-1 1h-1l-1 1-1 1-2 1h-1c0-1-1-1-1 1h-1v2H9v2H8v3l-1 3v5l-1 1v1l-1 1v-5l1-2v-3l1-1v-3l1-1v-2l-2 2H5v1l-1 1v2l-1 1v1H2v2l-1 1v-2l1-1H1v1l-1 1v1l-1 1-1-1 1-1 1-2v-1l1-1v-1c1 0 1 0 0 0 0-1 0-1 0 0H0v1l-1 1v1l-1 2-1 1-1 1v1h-1v2h-1v1-2l1-1v-1l1-1v-1l1-1h-1v1h-1v1l-1-1h1l-1-1v-1l-2 1h-1l5-5 2-2-1-1-1 1h-2v1h-2l-1 1h-2l-2 1v1h-2v1h-2v1l-1-1h1l1-1h1l1-1 1-1h2l1-1 3-1 1-1h1l1-1h1l1-1h2v-1h1-5l-2 1h-2l-1 1h-2l-1 1h-1l-1 1h-1l-2 1v1h-1v-1l1-1h1l1-1h1l1-1h1l1-1h1l1-1h2-4l-1 1h-2l-1 1h-1l-1 1v-1l1-1h1l1-1h1l1-1h1l1-1h3l1-1h4l1-1h2l5-1a38 38 0 0 0-18 1h-7l-1 1-1-1h1l3-1h3-1l-4-1h-4 5l5-1h-1l-2-1h-6 12l1 1 1-1h-3l-2-1h-2l-1-1h-4 9-1l-1-1h-2l-2-1h-7l-2 2-2 2h-1l-1 1v1l-1 1-1 1v1h-1v8l2 2v1h4l4 1 1 2 1 1v1h8v1h1v1l1 1 1 1v2h1l2 3v1l1 1h4zm-1-3v-3h1-2v-1l1-1 1-1v-1h1v4l-1 2c0 1 0 2-1 1zm3-7h1-1zm-20-7v-1l1 1h-1zm1-1h1-1zm-3-3 3-3v1l-1 1-2 1zm-4-2 1-1h1v1h-2zm3-1v-1l1 1h-1s-1 0 0 0zm4 0 1-1v1h-1zm-3-1h1l1-1h1l1-1h4-2l-1 1h-2v1h-3zm-3-2c-1 0-1 0 0 0h1-1zm2-1h2l-1 1-1-1zm-7-1h1-1zm2-1h1l-1 1v-1zm2-2zm1-2h1-1zm2 0h1-1zm57-3h1v1l-1-1zm27-7-1-1v-1h-1l1-1h1v1l1 1h1v1h-2zm-68-2zm2 0v-1l1 1h-1zm39 0v-1 1zm4 0v-1l1 1h-1zm-41-3v1-1zm64-1h1v1l-1-1zm-44 0 1-1v1h-1zm-24-3-1-1v-1l1 1 1 1h-1zm80-5v-1c1 0 2 0 1 1h-1zm2-1v-1h2-1l-1 1zm1-8 1-1 3-1h1v-1h2l-1 1h-1l-1 1h-1l-1 1h-2zm-7-3 1-2v1l-1 1zm-53-2h-1 2v1l-1-1zm57-1h1s1 0 0 0h-1zm-49-1h1l-1 1v-1zm19 65h6v-1h6l1-1h1l1-1v-1 2h1l1-1v1h1l1-1h2l1-1 1-1h1l1-1-1-1v-2l-1-1v-1l-1-1-1-1-1-1a16 16 0 0 0-3-3v-1h-2v-1l-3-1h-1l-1-1-1 1h-1v-1h-1l-1 1-2-1h-2l-1-1h-1l2 1 1 1h-2l-1-1h-1l-1 1h-2l-1 1v1l-1-1-1 1h1v2l-1-1h-1c0-1 0-1 0 0h-1l1 1v1h-2v-1l-1 1h1l-1 1v1l-1 1v-1h-1v1h1l-1 1h3v3h-1v1l-1-1v-1 2l-1 1 1 1 1 1 1 1h2l-1 1h3v1h1v-2l1 1v1l1 1 1-1v1h2zm-2-3zm7 0h1v-2 2h-1zm0-2h1-1zm3 0h1-1zm-18-1h1-1zm14 0v-2h1v1h1-1v1h-1zm5 0-1-1v-2l1 1v2zm2-3zm-8-2v-1l1 1h-1zm-1-1h1-1zm0-1v-1 1zm-3-1 1-1v1h-1zm-3-2h1v1l-1-1zm-2 0zm14-2 1 1-1-1zm-6 0h1-1zm-1-1c-1 0-1-1 0 0h1-1zm3 0v1-1zm-16 16v1-1zm-33-2v-1l1-1 1-1v-1h1v-1H0v1h-1l-1 2h-1l-2 1 1-1 1-1h1v-1h-1l-1 2h-2v2h4zm6-5zm-10-6h-1 1zm16 0v-2H9l1 2zm30-5h-1 1zm9 0-1-1v1h1zm-43-2-2-1H3l-1-1H1l-1-1h-1l-1-1h-2l-1-1h-1v1h-1v1h1l1 1h3v1h2l2 1h4zm49-3h-1l1 1v-1zm-1-1h-1 1zm26-3h-1 1zm-82-1zm-4-1v1-1zm3 0v1-1zm3 0h-1c-1 0-1 0 0 0h1zm7-1v-1l-1-2v2l1 2v-1zm-11 0h-1v-1h-2 1l1 1h1zm2 0h-1 1zm1 0h-1 1zm-2 0v-1 1zm-1-1v-1 1zm35-2zm-13-1h-1 1zm-16-5H1h1zm42-6h-1v1l1-1zm0-7v-1 1zm4 0v-1l1-1v-1 1h-1v1l-1 1h1zm-4-5v-3l-1-1v-2l-1-2-1-3 1-1 1-1 1-2v2l1-1v-1 1l1 1h4v-1l1-1 1-1c0-1 0-1 0 0v1h1l1-1 1-1 1-1h1l1-1 1-1 1-1 1-1v-2h1v1l-1 1v4l-1 3c0 1 0 1 0 0h1v-1l1-1 1-1v-1h1l1-4v-3h-1l-1-1H46l-1 1h-1l-3 4h-1v2l-1 4v7l1 1v1l1 2v1l1 1v2h1v3l1 1v-3zm6 2-1-1h1l1-1 1-1h1v-1h1v-2l-1-2h1l-1-1v1l-1 1v1h-1v2h-1v1l-1 1v2h1zm6-4h1l1-1h-1l-2 1h1zm4-1 4-1 1-1h3l1-1h2l1-1-4 1h-4l-1 1h-3v1h-2v1h2zm6-6v1-1zm-3-1v-1 1zm0-3v-1l-1 1h1zm5 49v-1l1 1h-1zm1-1h1v1l-1-1zm17-7h1v1l-1-1z" style="fill:#6b6e96;stroke-width:.264583" transform="translate(35 -53)"/><path d="M5 154H-7l-1-2-1-1c0-1 0-2-2-3v-1l-1-1v-1h-1l-1-2h-1c0-1 0-1 0 0h-5l-1-1h-1l-2-2-4-2-2-1h-1l-1-1h-1l-1-1v-1l-1-1v-7l1-2v-2h1v-1l1-1 2-3h1l1-1v-1h1l1-1h12l-1-1-2-1-2-2-2-1v-1l-1-1-1-1h-1v-1l-1-1-1-1v-8l2-1 1-1h1a55 55 0 0 1 12 0l-1-2a26 26 0 0 1 1-10v-1l3-3 1-1h7v1h1l1 2 1 1v1l2 2 1 1 1 1 1 1h1l1-2-1-1v-2l-1-1v-3l-1-3v-2l1-1v-2l1-1v-1l1-1h1v-1h1l1-1h1v-1h2v-1h2v-1h2l1-1h4l2-1 1 1h2l1 1h1v1h1l1 1 1 1 1 1v1l1-2v-3h1v-2l1-1 1-1 1-1 1-1h2l1-1h17l1 1h3v3l-1 3v2l-1 1v2h-1v1h-1v3l1 1v1l1 1v-2 1h1v1l3 1h1l1 1 1-1h2l1 1v-1h3l2 1h6l1 1v1l1 1v5l-1 1v2l1 3v7l-1-1 1 1v1h1l-1 1v1h-2v1h-1l1 1v1l-1 1v5h1v2h-1v-1 2h1l-1 1h-1l1 1h-2v1h1-3v2l-1-1-1-1h-1l-1 1v-1h-1v1l-1 1v-1l-1 1-1 2v-1h-1l-1-1h-1l1 1 1 1v1l-1-1-1-1h-1v-1h-2l1 1h-1c0 1 0 1 0 0l-1-1-1-1h-2l-2-1h-4v1h-1c0-1 0-1 0 0v3l-1 1-1 1h1l1 1 1 1h2v1h1l2 1 1 1 2 2 2 1v1l1 1 1 2 1 1v2l1 2-1 2-1 1-2 1-1 1-1 1h-1l-1 1h-1l-1 1h-1l-1 1h-1l-1 1h-4l-3 1H39v-1h-2v-1h-2l-1-1h-2v-1h-1l-1-1-3-3-1-1-1-1-1 2v2l-1 1v1l-1 1v1l-1 1-5 5-1 1h-3l-3 1H5zm-7-2 1-1h1v-1h2v-1h1l1-1h1l1-1h3v-1l1-1h1l2-2 1-2h1v-1l1-1 2-2v-1h2l1-1h1v-1l1-1h1v-2h1v-1l1-1v-1h1v-1l1-1v-1l1-1h1v-1l1-1h3l1-1h1l2-1 3-3 1-2 1-1 1-1v1l-1 1v2l-1 1v1l2 1 3-1v-2l1-1v-2l1-2v-3l1-1v-1h1l2-1v-1l1 1 1 1 1 1 1 2 1 1h2v1l2 1h8l1-1 1-1h2v-1h1l1-1h1l1-1 1-1 2-2 1-1v-5l-2-1h-1l-1-2H68l-2-1 6-1h4l1-1h1v-1h2l1-3 1-1 1-1 1-1v-1l1-1v-4l-2-1-1-1h-3l2-1h1-2l-2-1-2 1h2-2l-3 1h-4l-1 1h-3l-1 1-2 1h-1v1h-1 3l1-1h3v1c-1 1 0 1 1 1l1 1h-1 4l1-1h1l2-1h2l1-1 1 1h-2v1h-2l-1 1h-2l-2 2h2c0-1 0-1 0 0h6v-1 2h-1l-1 1-1 1v1h-1l-1 1v1l-1-1h-2v1h-2l-2 1H53l-2-1-1 1h-1l-1-1 1 2h2l1 1h1l4 1h5l2 2c2 0 2 0 0 0h-1v1l-2 1h-3l-1-1h-1l-1-1h-1l-2-1h-4l-1-1v-2h-1v2h1l-3 1h-2v-1h-1v-1h-2c0 1 0 1 0 0h-4v1l-1 1h-2l-1 1v1l-1-1 1-1v-1h1v-1h1v-1l1-1v-1l1-3h6-2v-1h-2l-3-3v-1h-1v-2l-1-1-1-1-2-2-1-1c-1-1 0-1 1-1h1v-1h1v-1l-1-1v-1l2 1 1-1h2v-1l1-1v-2l-1-1-1-2-1-1-1-1h-1v-1h-2l-1-1h-2l-2 1h-2l-1 1h-2l-2 1-1 1-1 1h-1l-3 4-1 4v3l1 1v2l1 1 1 1 1 2h-1v1l-1 2-4 1-1-1v-1l-1-1-1-1H4l-1-2v-1H2v-1l-1-1-1-1h-6v1l-1 1-1 1h-1v3l-1 1v5h1v1l1 1v3l-1 1-1-1h-3l-1-1h-7l-1 1-1 1-1 1-1 1v1l1 1v1l1 1v2h1v1l1 1h1l1 1h1l2 2 1 1 1 1h1l1 1h4l2 1h4l1 1 1-1h1l1 1v1l1 1v-2l-1-1-1-1-1-2v-1l1 1h1v2l1 1 1 1v1l1 1 1 1 1 1 1 1-1-3-1-1v-2l-2-3v-1h1l-1-1v-1l1 1 1 1v1l1 1v1l2 2v-1l-1-1v-7l1-4v-3l1 3v6l1 3v7l1 5v-2l1-1v-1l1-6 1-3v1l1 1v1c1 1 1 0 1-1l1-1 1-1v-1l1-1 1-1 1-1 1-1v-1l1 1h-1v1l-1 1v1h-1v2h-1v3l-1 1v2l-1 2v2l1-2 1-1v-2h1v-2l1-1h1l-1 1 1 1 1 1v-1h3l-1 1v1h3l1-1h4c1 0 1 0 0 0l-1 1h-2v1h-1l-2 1h-1l-1 1h-1v1h-1l-1 1-2 2-1 1-2 1v1h-1l-1 1-4 1h-1v1l-1 1v1l-1 2-1 1v1-4h1l-3 1-1 1H4l-1 1v1l-1-1v-1l-1 1h-2v1-1l-1 1h-2 1v-1l2-2h-3v1h-2l-1 1h-3v1h-1l1-1h1l1-1h2l2-1v-1h2l1-1h1v-1h2v-1h1-3l-2 1h-4v1h-2l-2 1h-1l-1 1-1-1h2v-1h2l1-1h2l1-1h2l1-1h-3l-2 1h-2l-1 1h-2l-1 1h-2l1-1h2l1-1h1l1-1h3l1-1h6l3-1h3l1-1H7l-3-1h-8l-3 1h-5l-2-1h-1 5v-1h3l-1-1h-1l-1-1h-2 6l-1-1h-1l-1-1h-1l-1-1h-14l-1 1-1 1-1 1-1 1-2 2v1l-1 1v1c-1 0-2 6-1 7v1l2 2v1h4l4 1 1 2 1 1v1h8v1h1v1l1 1v1l1 1v1h1l2 3v1l1 1h4zm-1-4v-1l1-1v-3l1 1v1l-1 2v1l-1 1v-1zm8-3v-1l1 1H5zm1-3v-1 2-1zm0-3 1-1v1H6zm-6 0v-1l1-2v-1h1v-1 2l-1 1v1H0v1zm-2-1 1-1v1h-1zm4 0zm0-2h1v-2 3l-1-1zm-8 0 1-1v1h-1zm13 0v-1 1zm-20-1 1-1v1h-1zm8 0v-1l1 1h-1zm-7-1h1-1zm16 0zm-21-1zm1-1h1-1zm2-1h1-1zm-2-1v-1l1 1h-1zm39-3v-3l1-2v-2h1l1-1 7 1-1 1h-2l-2 1v1l-1 1-1 1-1 1v1l-1 2c-1 2-1 1-1-2zm-38-3h3-3zm1-4h2c1 1 1 1-1 1l-1-1zm-1-1 2-1 1 1h-3zm7 0v-1l1 1h-1zm-8-1c1 0 0 0 0 0zm4-1h1l-1 1v-1zm42-4h3-2v1l-1-1zm5 0h2l-1 1-1-1zm-7 0h1-1zm5-1h1-1zm28-4-1-1v-1h-1l1-1h1v1l1 1h1v1h-2zm-58-1v1-1zm1-1v1-1zm57-4h1v1l-1-1zm-36-1h1-1zm48-7v-1c1 0 2 0 1 1h-1zm2-1v-1h2-1l-1 1zm1-8 1-1 3-1h1v-1h2l-1 1h-1l-1 1h-1l-1 1h-2zm-7-3 1-2v1l-1 1zm-53-2h-1 2v1l-1-1zm57-1h1s1 0 0 0h-1zm-49-1h1l-1 1v-1zm19 65h6v-1h6l1-1h1l1-1v-1 2h1l1-1v1h1l1-1h2l1-1 1-1h1l1-1-1-1v-2l-1-1v-1l-1-1-1-1-1-1a16 16 0 0 0-3-3v-1h-2v-1l-3-1h-1l-1-1-1 1h-1v-1h-1l-1 1-2-1h-2l-1-1h-1l2 1 1 1h-2l-1-1h-1l-1 1h-2l-1 1v1l-1-1-1 1h1v2l-1-1h-1c0-1 0-1 0 0h-1l1 1v1h-2v-1l-1 1h1l-1 1v1l-1 1v-1h-1v1h1l-1 1h3v3h-1v1l-1-1v-1 2l-1 1 1 1 1 1 1 1h2l-1 1h3v1h1v-2l1 1v1l1 1 1-1v1h2zm-2-3zm7 0h1v-2 2h-1zm0-2h1-1zm3 0h1-1zm-18-1h1-1zm14 0v-2h1v1h1-1v1h-1zm5 0-1-1v-2l1 1v2zm2-3zm-8-2v-1l1 1h-1zm-1-1h1-1zm0-1v-1 1zm-3-1 1-1v1h-1zm-3-2h1v1l-1-1zm-2 0zm14-2 1 1-1-1zm-6 0h1-1zm-1-1c-1 0-1-1 0 0h1-1zm3 0v1-1zm-16 16v1-1zM0 130h1v-1l-1 1h-1l1 1v-1zm2-1h1l1-1 1-1H4l-1 1-1 1zm8-2v-3H9l1 3zm-11-1v-1l-1 1h1zm10-2H8h1zm31-2h-1 1zm9 0-1-1v1h1zm-43-2-2-1H3v-1H1l-1-1h-1l-1-1h-1l-1-1h-3v2l4 1 1 1h2l2 1h4zm49-3h-1l1 1v-1zm-1-1h-1 1zm-62-3-1-1-1 1h2zm88 0h-1 1zM44 95h-1v1l1-1zm0-7v-1 1zm4 0v-1l1-1v-1 1h-1v1l-1 1h1zm-4-5v-3l-1-1v-2l-1-2-1-3 1-1 1-1 1-2v2l1-1v-1 1l1 1h4v-1l1-1 1-1c0-1 0-1 0 0v1h1l1-1 1-1 1-1h1l1-1 1-1 1-1 1-1v-2h1v1l-1 1v4l-1 3c0 1 0 1 0 0h1v-1l1-1 1-1v-1h1l1-4v-3h-1l-1-1H46l-1 1h-1l-3 4h-1v2l-1 4v7l1 1v1l1 2v1l1 1v2h1v3l1 1v-3zm6 2-1-1h1l1-1 1-1h1v-1h1v-2l-1-2h1l-1-1v1l-1 1v1h-1v2h-1v1l-1 1v2h1zm6-4h1l1-1h-1l-2 1h1zm4-1 4-1 1-1h3l1-1h2l1-1-4 1h-4l-1 1h-3v1h-2v1h2zm15-4h-1 1zm-9-2v1-1zm-3-1v-1 1zm0-3v-1l-1 1h1zm5 49v-1l1 1h-1zm1-1h1v1l-1-1zm17-7h1v1l-1-1z" style="fill:#a76059;stroke-width:.264583" transform="translate(35 -53)"/><path d="m-6 154-1-1-1-1v-1h-1l-1-3-1-1-1-1v-1l-1-1-1-1h-1v-1 1h-5v-1h-2l-1-1-1-1c0-1-1-2-4-2l-2-1h-1l-1-1h-1l-1-1v-1l-1-1v-7l1-2v-2h1v-1l1-1 2-3h1l1-1v-1h1l1-1h12l-1-1-2-1-2-2-2-1v-1l-1-1-1-1h-1v-1l-1-1-1-1v-8l2-1 1-1h1a55 55 0 0 1 12 0l-1-2a26 26 0 0 1 1-10v-1l3-3 1-1h7v1h1l1 2 1 1v1l2 2 1 1 1 1 1 1h1l1-2-1-1v-2l-1-1V69l1-1v-1l1-1h1v-1h1l1-1h1v-1h2v-1h2v-1h2l1-1h4l2-1 1 1h2l1 1h1v1h1l1 1 1 1 1 1v1l1-2v-3h1v-2l1-1 1-1 1-1 1-1h2l1-1h17l1 1h3v3l-1 3v2l-1 1v1l-1 1-1 1v1l-1 1-1 2-1 1v1h-1l-1 1v1h-1v1h-1v1l1 1h1v-1h1l3-1 1-1h5l4-1h2l1 1v-1h3l2 1h6l1 1v1l1 1v5l-1 1v1l-1 1v1h-1v1l-1 1v1l-1 1-2 2h-1v1l-1 1v1h2v1h2v1l1 1v6l-1 1h-1a10 10 0 0 1-3 3l-1 1-1 1h-1v1h-1l-1 1h-2v1h-1l-1 1h-2l-1 1-1-1h-3l-1-1h-2l-1-1h-2v-1h-1v-1h-2c0-1 0-1 0 0v1h-1v-1l-1 1c0 1 0 1 0 0h-1v2l-1 2v3h1l2 1h2l1 1 1 1h1l2 1 2 1 1 1 2 2 2 1v1l1 1 1 2 1 1v2l1 2-1 2-1 1-2 1-1 1-1 1h-1l-1 1h-1l-1 1h-1l-1 1h-1l-1 1h-4l-3 1H39v-1h-2v-1h-2l-1-1h-2v-1h-1l-1-1-3-3-1-1-1-1v-1h-3v1l-2 1-1 1-2 1v1l-1 1h-1v1l-1 1h-1v1l-1 1h-1l-1 1H8v1H6v1H4l-1 1H2l-1 1H0v1l-3 1h-3zm4-2 1-1 1-1h2v-1h1l1-1h1l1-1h3v-1h1l4-4 1-2 1-1v-1h1l1-1v-1h2l1-1h1v-1h2v1l1-1v-3l1-1v-1l1-1v-1h1v-1l1-1 1-1 1-1 1-1v1l2-1h1l1-1h1l2-1 1-1 1-2 1-2 1-1 1-1v1l-1 1v2l-1 1v4-1h-2v1h-3v1l-1 1h-1v1l-1 1-1 1h-1l-1 1v1h-1v1l-1 2v1l-1 2 1 3 1 1v1l2 1 1 1h3v1h1c0-1 0-1 0 0l1 1h2v1h1l2-1 1 1 3-1 1 1 1-1h1l1 1 1-1 1-1v2l1-1 1-1v1h1v-1h1l1-1h5l1-1h1l2-2 1-1v-3l-1-1v-2l-1-1-1-1a19 19 0 0 0-5-5h-1l-1-1-2-1h-1l-1-1h-3l-2-1-1-1-1-1v-1h1v-3l1-1v-5h1l1-2c1-2 3-1 4 0v1h1v1l1 1h1l1 1 1 1 1 1h1c0-1 0-1 0 0h3l3 1v-1h2l1-1 1-1h2v-1h1l1-1h1l1-1 1-1 1-1 1-1 1-1v-5l-1-1h-2l-1-1-1-1h-4l-4-1h3l3-1h1l1-1h1v-1h2v-1h1v-1l1-2 1-1 1-1v-1l1-1v-2l1-1-1-2h-1l-2-1 1-1h1-3l-5-1-2 1-4 1h-1l-1 1h-3l-1 1-2 1h-1v1h-1 3l1-1h3v1c-1 1 0 1 1 1l1 1h-1 4l1-1h1l2-1h2l1-1 1 1h-2v1h-2l-1 1h-2l-2 2h2c0-1 0-1 0 0h6v-1l1 1h-1v1h-1l-1 1-1 1v1h-1l-1 1v1l-1-1h-2v1h-2l-2 1H53l-2-1-1 1h-1l-1-1-1 1h1l1 1h1l1 1v-1l1 1h1l4 1h5l2 2c2 0 2 0 0 0h-1v1l-2 1h-1l-1-1h-1v-1h-5l-1-1h-4v-1h-1v-2l-1-1v3c1 0 1 0 0 0v1h-3l-2-1v-1h-2c0 1 0 1 0 0h-4v1l-1 1h-2l-1 1v1l-1-1 1-1v-1h1l1-1v-1h1v-2l1-2 1-1h5-2v-1h-2l-2-3-1-1v-1l-1-2-2-1-2-2-1-1c-1-1 0-1 1-1h1v-1h1v-1l-1-1v-1l2 1 1-1h2v-1l1-1v-2l-1-1-1-2h1l-1-1c0-1-1-2-2-1l1 1v-1h-2v-1h-1v-1l-1 1h-1l-2-1-3 1c1 0 0 0 0 0h-2l-2 1-1 1h-1l-1 1h-1v1h-1l-1 1-2 1v1l-1 1v7l1 1v2l1 1 1 1 1 1h-1v-1h-1l1 2v1l-1 2-4 1-1-1v-1l-1-1-1-1H4l-1-2v-1H2v-1l-1-1-1-1h-6v1l-1 1-1 1h-1v3l-1 1v5h1v1l1 1v3l-1 1-1-1h-3l-1-1h-7l-1 1-1 1-1 1-1 1v1l1 1v1l1 1v2h1v1l1 1h1l1 1h1l2 2 1 1 1 1h1l1 1h4l2 1h4l1 1 1-1h1l1 1v1l1 1v-2l-1-1-1-2-1-1v-1l1 1h1v2l1 1 1 1v1l1 1 1 1 1 1 1 1-1-3-1-1v-2l-2-3v-1h1l-1-1v-1l1 1 1 1v1l1 1v1l2 2v-1l-1-1v-7l1-4v-3l1 3v6l1 3v7l1 5v-2l1-1v-1l1-6 1-3v1l1 1v1c1 1 1 0 1-1l1-1 1-1v-1l1-1 1-1 1-1 1-1v-1l1 1h-1v1l-1 1v1h-1v2h-1v3l-1 1v2l-1 2v2l1-2 1-1v-2h1v-2l1-1h1l-1 1 1 1 1 1v-1h3l-1 1v1h3l1-1h4c1 0 1 0 0 0l-1 1h-2v1h-1l-2 1h-1l-1 1h-1v1h-1l-1 1-2 2-1 1-2 1v1h-1l-1 1-4 1h-1v1l-1 1v1l-1 2-1 1v1-4h1l-3 1-1 1H4l-1 1v1l-1-1v-1l-1 1h-2v1-1l-1 1h-2 1v-1l2-2h-3v1h-2l-1 1h-3v1h-1l1-1h1l1-1h2l2-1v-1h2l1-1h1v-1h2v-1h1-3l-2 1h-4v1h-2l-2 1h-1l-1 1-1-1h2v-1h2l1-1h2l1-1h2l1-1h-3l-2 1h-2l-1 1h-2l-1 1h-2l1-1h2l1-1h1l1-1h3l1-1h6l3-1h3l1-1H7l-3-1h-8l-3 1h-5l-2-1h-1 5v-1h3l-1-1h-1l-1-1h-2 6l-1-1h-1l-1-1h-1l-1-1h-14l-1 1-1 1-1 1-1 1-2 2v1l-1 1v1l-1 4v5l1 1 1 1h4l4 2 1 1v1l1 1h2l1 1 2-1h2l1 1 1 1 1 1v1l1 1v1h1l1 1 1 2v1l3 2 2-1zm-1-4v-1l1-1v-3l1 1v1l-1 2v1l-1 1v-1zm8-3v-1l1 1H5zm1-3v-1 2-1zm0-3 1-1v1H6zm-6 0v-1l1-2v-1h1v-1 2l-1 1v1H0v1zm-2-1 1-1v1h-1zm4 0zm0-2h1v-2 3l-1-1zm-8 0 1-1v1h-1zm13 0v-1 1zm-20-1 1-1v1h-1zm8 0v-1l1 1h-1zm-7-1h1-1zm16 0zm-21-1zm41 0zm-40-1h1-1zm2-1h1-1zm-2-1v-1l1 1h-1zm39-3v-3l1-2v-2h1l1-1 7 1-1 1h-2l-2 1v1l-1 1-1 1-1 1v1l-1 2c-1 2-1 1-1-2zm-38-3h3-3zm1-4h2c1 1 1 1-1 1l-1-1zm61 0v1-1zm-4 0h1c1 0 1 0 0 0h-1zm-58-1 2-1 1 1h-3zm7 0v-1l1 1h-1zm-8-1c1 0 0 0 0 0zm4-1h1l-1 1v-1zm42-4h3-2v1l-1-1zm5 0h2l-1 1-1-1zm13 0 1-1v1h-1zm-20 0h1-1zm5-1h1-1zm28-4-1-1v-1h-1l1-1h1v1l1 1h1v1h-2zm-58-1v1-1zm1-1v1-1zm57-4h1v1l-1-1zm-36-1h1-1zm41-6v1-1zm7-1v-1c1 0 2 0 1 1h-1zm2-1v-1h2-1l-1 1zm1-8 1-1 3-1h1v-1h2l-1 1h-1l-1 1h-1l-1 1h-2zm-7-3 1-2v1l-1 1zm-53-2h-1 2v1l-1-1zm57-1h1s1 0 0 0h-1zm-49-1h1l-1 1v-1zm51-1h1-1zm-40 66v-1l-1 1h1zM0 130h1v-1l-1 1h-1l1 1v-1zm2-1h1l1-1 1-1H4l-1 1-1 1zm8-2v-3H9l1 3zm-11-1v-1l-1 1h1zm10-2H8h1zm22 0zm6-1-1-1-1 1h2zm-31-3-2-1H3v-1H1l-1-1h-1l-1-1h-1l-1-1h-3v2l4 1 1 1h2l2 1h4zm-14-7-1-1-1 1h2zm52-18-1-1v2l1-1zm-6 0-1-1-1 1h2zm4-4h1l-1-1v1h-1v1l1-1zm5-2v1-1zm-2-1-1-1v-7l-1-1v-2l-1-2-1-3 1-1 1-1 1-2v1h1c0-1 0-1 0 0l1 1h4v-1l1-1 1-1c0-1 0-1 0 0v1h1l1-1 1-1 1-1h1l1-1 1-1 1-1 1-1v-2h1v1l-1 1v4l-1 3-1 2h-1l2-1 1-1 1-1v-1l1-1v-1h1l1-3v-4l-1-1v1l-1-1-1-1v1h-4a43 43 0 0 0-11 0h-2l-1 1v1l-1-1-2 2v1l-1 1v1l-1 1v6c0-1 0-1 0 0l-1 2h-1l1 1h1v3h1v1l1 2v2l1 1v1s1 0 0 0l1 1v3l1 1v1h1zm3 0v-1l1-1v-1 1h-1v1l-1 1h1zm-11-2v-1 1zm4 0v-1 1zm9-1-1-1h1l1-1 1-1h1v-1l1-1v-1h1-1l-1-1 1-1-1-1-1 2v1h-1v2h-1v1l-1 1v2h1zm4-6zm2 2h1l1-1h-1l-2 1h1zm4-1 4-1 1-1h3l3-1h1l-2-1h-3l-2 1h-2l-1 1h-2l-1 1-2 1h3zm25-2h-1 1zm-46-1-1-1v1h1zm11-3h-1 1zm7-1 1-2-1 1-1 1-1 1 2-1zm3 3v-1 1z" style="fill:#d5661b;stroke-width:.264583" transform="translate(35 -53)"/><path d="m-6 154-2-1v-2l-2-2-1-2-1-1v-1l-2-1v-1h-1l-2 1-3-1h-1l-1-1h-1v-1h-1c0-2-1-3-4-3h-3l-1-1-1-1h-1v-1l-1-1v-8l1-1v-2h1v-2l1-1 2-2 1-1 1-1h1l1-1 1-1h5l5 1h1v-2h-1l-2-1-2-1-2-2-1-1v-1h-1l-1-1v-1l-1-1-1-1v-8l2-1 1-1h1a56 56 0 0 1 12 0l-1-2a26 26 0 0 1 1-10v-1l3-3h9l2 2v1l1 1 1 2 2 1 1 1v1h2v-4l-1-1v-1l-1-6 1-5v-1l1-1 1-1h1v-1h1l1-1 1-1h1l1-1h1l1-1h2l1-1h4l2-1 1 1h2v1h1l1 1h1l1 1v1h1v1l1 1v1-3l1-1v-2h1v-2l1-1 1-1 1-1 1-1h2l1-1h18l1 1h2v6l-1 1v2h-1v2h-1v1l-1 1-1 1-1 2-1 1v1l-1 1h-1v1l-1 1h-1v1l1 1h1v-1h1l3-1h2l1-1h7l1-1 2 1h1l2-1 3 1h4l1 1h1v1l1 1v6l-1 1v1l-1 1-1 1v1l-1 1v1h-1l-2 2v1h-1l-1 1 1 1h1l1 1h1v1l1 1v6l-1 1v1a10 10 0 0 1-3 2l-2 1v1l-1 1h-1v1h-3v1h-1l-1 1h-2l-1 1h-2l-1-1h-4l-1-1h-1l-1-1h-1l-1-1h-1v-1h-1v2-1h-1v-1l-1 1v1h-1v2l-1 1v4h3l1 1h2v1h2l2 1 1 1 1 1 2 1 1 1 2 2h1l1 2 1 1v4l1 2v2l-1 1h-1l-1 1-2 1-1 1h-1l-1 1h-2l-1 1h-1l-1 1h-1l-1 1H39l-1-1h-2l-1-1h-1v-1h-2v-1h-1l-3-3-1-1-1-2h-1v-1h-1l-1 1-1 1-1 1h-1l-2 2-1 1-1 1-1 1v1h-1l-1 1-1 1h-1l-1 1H8l-1 1-1 1H3v1H1v1H0v1l-3 1-3-1zm4-1 1-1h1l1-1 1-1h1v-1h2v-1h3l1-1h1v-1l5-4 1-1v-1l1-1 1-1 1-1 1-1h1l1-1h2c0-1 0-1 0 0h2v-4l1-1v-1l1-1 1-1v-1l1-1 1-1h1v-1h1v1-1h1l1-1h2l1-1h4l1-1h3l-1 1h-2v1l-1-1-1 1h-1v1l-1-1-1 1v1h-1v1h-1l-2 2h-1l-1 1v1l-1 1-1 1v2l-1 1v4l1 1v1h1l1 2h2l1 1 1-1v1h2v1h1l1 1h13l1-1v1l1-1h1v1h1v-1h1l1-1 1-1v1h3l1-1h1l1-1 2-1 1-1 1-1-1-1v-2l-1-1v-1l-1-1v-1h-1v-1a19 19 0 0 0-5-4l-1-1-3-1-1-1h-1l-1-1h-4v-1h-1v-5l1-2v-5h1l1-1v-1h3v1h1l3 3 1 1 2 1h2l1 1h5v-1h1l2-1h1l1-1h1l1-1 1-1h1v-1l3-2c2-2 2-3 2-5l-1-1-1-1v-1h-1l-1-1h-1l-5-1h-4l3-1h4l2-1 1-1 1-1 3-3v-1l1-1 1-1v-1l1-1v-1l1-1-1-2-2-1-1-1v-1h1-3l-5-1-2 1h-2l-2-1-3 1h-3v1h-4l-1 1-2 1h-1l-1-1-1-2v-1l-2 1v1l-1 1v1l-1 2h-1v1h-1v2l-1 3v2-1l1-1 1-1v-1l1-1 1-1h1l1-1h2l1-1 1-1h2l1-1v1l-2 1v1h-1l-1 1 1 1 1-1h1l1-1h2l1 1-1 1h4v1h1l1-1 1 1v1h-1l2 1h4c1 0 0 0 0 0l-1 1h-2l-1 1h-2l-1 1h-1l-2 2H48l2 1 1 1h2l2 1h3l3 1c1 0 1 0 0 0v1l-1 1h-2l-3-1h-1l-1-1h-2l-2-1h-1v-1l-1-1v3h-4l2-1v-1h-9c-2 0-2 0-1-1v-3l2-1h2l1 1h3-1v1h1v-1l-1-1v-1h-2v-1l-3-1-2-2v-1l-1-1-1-3v-1l1 1h2v1h2l-1-1v-1l-1-1v-1h-1v-1l-1-1h1v1l2 1 1 1 1 1v-1 1-1l-1-3v-3h1l1 1v2l1 1v1l1 2v1l1 1v2h1v3l1 1v2a32 32 0 0 0 0-8v-2l-1-2v-5h1c0 1 0 1 0 0 1-1 1 0 1 1h1l1 1 1 1v-1l1-1v-1h1v1l1-1 1-1h1v-1h1v1l-1 1v1l1-1h1v-1l1-1 1-1v-1l1 1h-1v2h-1v1l-1 1v2-1l3-3 2-1 1-2 1-1v-1l1-1 1-1 1-3v-1l1-1-1-2-1-1h-1l-8-1a45 45 0 0 0-8 1h-2l-1 1h-1l-2 2v1l-1 1v1l-1 1v4l-1 4-1-1-1-1v-2l-1-1v-1l-3-2-3-2h-6l-1 1h-1l-1 1h-1l-2 1h-1l-1 1-1 1h-1l-1 1-2 2v10l1 1v2l1 1v1l1 1-1 1-1 1-3 1-1-1-1-1-1-1-1-1-2-2v-1l-1-1-1-1-5-1-1 1h-1l-1 1-1 1v1h-1v2l-1 1v3l1 2 1 2v1l1 2-2 1h-1l-1-1h-2l-1-1h-6l-1 1h-1l-1 1-1 1-1 1v1l1 2v1l1 1v1h1v1l1 1h1l1 1 1 1 2 1 1 1 2 1v1h2l2 1h6l2 1h3v1h1l1 1-1-1v-1l-1-1-1-2v-1H0v-1l1 1h1v1l1 1v1h1v2h1l1 2 1 1v1l1 1v-3l-1-1v-2H6v-1l-1-2v-1H4v-1h1v-1h1v1l1 1v1l1 1 1 2v-3l-1-2 1-2v-6c0-5 1-7 1-2v3l1 2v6l1 3v9-1l1-1v-1l1-7 1-3 1 1v2l1 1 1-1v-1l1-1v-1h1l1-2 1-1 1-1 1-1v1h-1v2h-1v2l-1 1-1 1v2l-1 1v5l1-2v-2h1v-1l1-1v-1l1-1h1l-1 1v1h1v1h1l1-1h1l1 1-1 1h-1 4l1-1v1h2l2-1v1h-2l-1 1h-1l-1 1h-2v1h-1l-1 1h-1l-1 1-2 2v1l-2 1-1 1h-1l-1 1h-1l-3 1h-1v1l-1 1v1l-1 1-1 2v1l-1 1v-2l1-1v-2l-3 2H5l-1 1-1 1v-1l-1-1v1h-3l1 1h-2l-1 1v-1h1l1-2c1-1 0-1-1-1l-1 1h-2l-1 1h-2v1h-2l1-1h1l1-1h1l2-1h1l1-1h1l1-1h1l1-1h1v-1l-1 1h-4l-2 1h-3l-1 1h-1l-1 1h-2l1-1h1v-1h3l1-1h2l1-1h1-4l-1 1h-4l-1 1h-1l-1 1-1-1h2l1-1h2v-1h3l1-1h4l4-1h4l1-1h1v-1H4l-3-1h-3l-2 1h-9l-2-1h4l1 1 1-1h-1l2-1h2-1l-1-1h-3l1-1 1 1h3l-1-1-1-1-1-1h-2v-1h-1l-1 1h-2l-2-1h-4l-4 1h-1l-1 2-1 1h-1l-2 3-1 1v1l-1 5v5h1v1h2l1 1h2l4 2 1 1v1h1l1 1h7l1 1v1h1v1l1 1v1l1 1 1 1 1 2v1l3 1h2zm-1-4 1-1v-2l1-2v3l-1 2h-1zm8-4h1-1zm1-3v-1l1 1-1 2v-2zm1-3v-1 1c0 1 0 1 0 0zm-7 0v-1l1-2h1v-1h1l-1 1v2H1v1l-1 1v-1zm-2 0 1-1v1h-1zm4 0v-1 1zm1-2v-1l1-1v1l-1 1v1-1zm-9 0 1-1v1h-1zm13-1h1v1l-1-1zm-19-1zm8 0zm-8 0h1-1zm16 0v-1l1 1H4zm-21-2h1-1zm41 0h1-1zm-39-1h1-1v1h-1l1-1zm1 0 1-1v1h-1zm-2-2h1v1l-1-1zm40-2v-6l1-1v-1h9l-1 1h-2l-2 1v1l-1 1-2 2v1l-1 1v1l-1 1v-2zm-39-4h3-3zm1-3h2c1 0 1 0 0 0h-2zm62 0zm-62-2h3-3zm6 0h1-1zm-8-1h1-1zm4 0h1-1zm43-4 1-1h2-1l-1 1h-1zm5 0h1c1 0 1 0 0 0h-1zm-7-1h1-1zm5-1v1-1zm-31-4h1-1zm1-1h1-1zm22-6zm36-21h1-1zm14-3h1-1zm-40 66h-1v1l1-1zM1 131v-1l-1 1h1zm2-2h1l1-1h1l-1-1v1H4l-2 1v1l1-1zm8-2v-2h-1v3l1-1zm-11-1h-1v1l1-1zm9-2zm23 0zm6-1h-2 2zm-32-3-1-1H3l-1-1H1l-1-1h-2l-1-1h-3v2l3 1h2l2 1h2l2 1 1-1zm-14-7h-1 1zm72-26h-1 1zm1 0v-1l-1 1h1zm-27-1zm4 0zm20-2h-1 1zm25-6h-2 2zm-48-1v-1 1zm12-3h-1 1zm10 2z" style="fill:#575767;stroke-width:.267065" transform="translate(35 -53)"/><path d="m-6 154-1-1-1-2-1-1-1-1v-1l-1-2h-1v-1l-1-1-1-1-1-1-1 1h-3l-2-1h-1l-2-3v-1h-3l-3-1h-2v-1l-2-1v-12h1v-2l1-1 1-1 1-1 1-1h1l1-1v-1l1-1h11l1 1v-2h-1l-2-1v-1h-1l-1-1-1-1-1-1-1-1-1-1-1-1v-1l-1-1-1-1v-3l1-4v-1h1v-1h2l5-1 4 1h1l2 1h1l-1-1-1-3v-7l1-2 3-4h1l3-1 3 1h2l2 3v2l1 1 2 2h1l1 1v1l1-1 1-1v-1l-1-2v-2l-1-1V69l1-1 2-2 1-1h1l1-1v-1h2l1-1 1-1h3l1-1h4l1-1 1 1h1l1 1h2v1l2 2h1v1l1 1v1l1-2v-3l1-1v-1l2-3 2-1 1-1h1l1-1h17l1 1h1c1 0 2 1 2 3l-1 3v2l-1 1v1l-1 1-1 1v1l-1 1-1 1-1 1v1l-1 1v1l-1 1h-1c-1 0-2 2-1 3h2v-1h2l1-1h1l1-1h6l3-1 2 1h2l1-1h1l2 1h5l2 2 1 1v4l-2 3v1l-1 1v1l-1 1v1l-1 1v1h-1l-1 1h-1v1l-1 1 1 1 1 1h2v1l1 1v6l-1 1h-1a10 10 0 0 1-3 3l-1 1-1 1h-1v1h-1l-1 1h-2v1h-1l-1 1h-6l-2-1h-2l-1-1h-1l-2-1-1-1h-1c0-1 0-1 0 0v1h-1v-1l-1 1c0 1 0 1 0 0h-1v2l-1 2v3h1l2 1h2l1 1 1 1h1l1 1h1l1 1 1 1h1l1 2 2 1 1 1 1 2 1 1 1 1v6h-1l-1 1v1h-1v1h-1l-1 1h-1l-1 1h-2v1h-2l-1 1h-2v1h-4l-2 1H40l-1-1h-1l-1-1h-2l-2-2h-1l-3-2a124 124 0 0 0-4-4v-1h-3v1l-2 1-1 1-2 1v1l-1 1h-1v1l-1 1h-1v1l-1 1h-1l-1 1H8v1H6v1H4l-1 1H2l-1 1H0v1l-3 1h-3zm4-2h1v-1h1l1-1h1v-1h2l1-1h1v-1h3v-1h1l1-1 1-1 1-1 1-2h1v-1l1-1v-1h1l1-1 2-1 1-1h1v-1h2v1l1-1v-3l1-1v-1l1-1v-1h1v-1l1-1 1-1 1-1 1-1v1l2-1h1l1-1h3l2-1h4-1l-1 1-1 1v-1h-2c0 1 0 1 0 0l-1 1h-2l-2 3h-1l-1 1v1h-1l-1 1v1h-1v1l-1 2v1l-1 2 1 3 1 1v1l2 1 1 1h3v1h1c0-1 0-1 0 0l1 1h2v1h1l2-1 1 1 3-1 1 1 1-1h1l1 1 1-1 1-1v2l1-1 1-1v1h1v-1h1l1-1h5l1-1h1l2-2 1-1v-3l-1-1 1-1v-1h-1v1l-1-2h-1l-1-2-1-1v-1h-1l-1-1-1-1h-1v-1h-1l-2-1h-1l-1-1h-2l-2-1h-1l-1-1v-5l1-2v-4h1l2-2v-1h2v1l1 1 3 3h1l2 2h3l2 1 2-1h2l2-1v-1h2l1-1 2-1 1-1 2-2c2-2 3-4 2-5v-2l-1-1h-1l-1-1h-1v-1l-1-1h-1l-3 1-4-1h3l3-1h1l2-1 1-1h1l2-3 1-1v-1h1l1-2v-1l1-1v-2l1-1v-1l-1-1-1-1h-1l-2-1H72l-1-1v1h-5l-2 1h-1l-3 1-2 1-1 1h-1l-1-1-1-2v-2l-2 2v1l-1 1-1 2-1 1v1l-1 1v1l-1 3v2-1l1-1 1-1v-1l1-1 1-1h1l1-1h1l1-1h1l1-1h1l1-1h1v1l-2 1v1h-1l-1 1h3l1-1h2l1 1-1 1h4v1h1l1-1 1 1-1 1 1 1 2-1h3v1h-1l-1 1h-1l-1 1h-3l-1 1-2 1-1 1h-8l-4-1-4 1 2 1h1l1 1h1l2 1h6v2l-1 1h-1v-1h-3l-1-1h-3l-1-1v1h-2v-1l-1-1v-1h-1v3h-3l1-1v-1l-1-1v1h-3l-2-1-2 1h-1l-1-1v-1h1v-1l-1-1h1l1 1v-1c-2-1-1-1 1-1h3l2 1h-1v1l1-1h1l-1-1-1-1h-1v-1h-1l-3-1-1-1-1-2-1-2-1-2v-1h1l1 1h1l1 1h1v-1l-1-1-1-1v-1l-1-1-1-1h1l2 2 1 1h1c0 1 0 1 0 0v1-1l-1-4 1-2 1 1v2h1v2l1 1v2l1 1v2h1v3l1 1v1l1 1a32 32 0 0 0-1-9v-1l-1-2v-5h2c0-1 0-1 0 0l1 1 1 1h1v-1h1v-1h1v1l1-1 1-1h1v-1h1v1l-1 1v1l1-1h1v-1l1-1 1-1v-1 2l-1 1v1l-1 1v1c0 1 0 1 0 0l3-3 2-2 1-1 1-1v-1l1-1v-1h1l1-3v-4l-2-1-1-1h-8l-7 1-3 1h-1v1h-1l-1 1v1l-1 1v1l-1 5-1 4-1-1-1-1v-2l-1-1v-1l-1-1v-1h-2l-2-2h-7l-1 1h-1l-1 1h-1l-2 1h-1l-1 1-1 1-1 1-2 2-1 1v8l1 1v2h1v4l-1 2H8l-1-1-2-2-2-3v-1H2l-1-1v-1h-7v1l-3 2v1l-1 1v7l1 1v1l1 1v1l-1 1h-2l-1-1h-10l-1 1-1 1c-1 1-2 3-1 4l1 1v2h1v1l1 1 3 3 3 2 1 1 1 1 2 1h1v1h3l1 1v1h-2l-1-1h-15v1h-1l-1 1v1l-1 1h-1l-1 1-1 1v1l-1 1v1h-1v2l-1 1v4l1 4h1l1 1h1l2 1h3l3 2v2h2l2 1 3-1h1l1 1 1 1 1 1v2h1l1 2 2 3 1 1h4zm26-19zm-24-1v-1l1-1h1v-1h1l2-1 1-1h1v-2l-1 1H3l-2 1-1-1h2l1-1 4-1 1 1 1 1v2l1 1-1 1v-1H8l-1 1H6v1l-1-1H4l-1 1H2l-2 1zm-2-2 1-1 1 1h-2v1-1zm2-1h1-1zm24-1v-1 1zm-27-1h1-1zm14-2v-1h-1l-1-1-2-1H6v-1h1c0 1 0 1 0 0l-2-2H4v-1H2l-1-1h1l1 1h2l1 1h1v1l2 2v-3l1-1v-3c0-5 1-6 1-1v9l1-1h1v-1l1-1v-4h1l1 1c0 1 0 0 0 0l1-1v-2h1v-1l1-1v-1 3l-1 1v5c0 1 0 2 1 1v-1h2l1-1 1-1 2-1h1l2-1-2 2h-1l-1 1-1 1h-1v1l-1 1h-1l-1 1-1 1h-2v1l-1 1h-1l-3-1zm4-1 2-1h-3l-1 2h1l1-1zm9 1v-1 1zm-27-4h2l-1 1-1-1zm3-1h4c1 1 0 1-2 1l-2-1zm31 0h-2 4-2v1-1zm-31-3h1-1zm4-1h1-1zm24 0h1-1zm-24-1v-1 1zm-1-1zm-1-1h1-1zm59-33v-1l1 1h-1zm24-1h1-1zm-2-1h1l-1 1v-1zm-48 65v-1l-1 1h1zm34-7v1-1zm0-2h-1 1zm-2-4-2-1v1h1v1l1-1zm-36-6zm6-1-1-1-1 1h2zm1-31h1v-1h-1l-1 1v1l1-1zm5 1v-1 1zm20-6h-1 1zm1-1c1 0 0 0 0 0h-1 1zm-27 0v-1l-1 1h1zm4 0v-1 1zm20-2h-1 1zm-22-7-1-1v1h1zm11-3h-1 1zm10 2v-1 1z" style="fill:#a1201d;stroke-width:.264583" transform="translate(35 -53)"/><path d="m-6 154-1-1-1-2-1-1-1-1v-1l-1-2h-1v-1l-1-1-1-1-1-1-1 1h-3l-2-1h-1l-2-3v-1h-3l-3-1h-2v-1l-2-1v-12h1v-2l1-1 1-1 1-1 1-1h1l1-1v-1l1-1h11l1 1v-2h-1l-2-1v-1h-1l-1-1-1-1-1-1-1-1-1-1-1-1v-1l-1-1-1-1v-3l1-4v-1h1v-1h2l5-1 4 1h1l2 1h1l-1-1-1-3v-7l1-2 3-4h1l3-1 3 1h2l2 3v2l1 1 2 2h1l1 1v1l1-1 1-1v-1l-1-2v-2l-1-1V69l1-1 2-2 1-1h1l1-1v-1h2l1-1 1-1h3l1-1h4l1-1 1 1h1l1 1h2v1l2 2h1v1l1 1v1l1-2v-3l1-1v-1l2-3 2-1 1-1h1l1-1h17l1 1h1c1 0 2 1 2 3l-1 3v2l-1 1v1l-1 1-1 1v1l-1 1-1 1-1 1v1l-1 1v1l-1 1h-1c-1 0-2 2-1 3h2v-1h2l1-1h1l1-1h6l3-1 2 1h2l1-1h1l2 1h5l2 2 1 1v4l-2 3v1l-1 1v1l-1 1v1l-1 1v1h-1l-1 1h-1v1l-1 1 1 1 1 1h2v1l1 1v6l-1 1h-1a10 10 0 0 1-3 3l-1 1-1 1h-1v1h-1l-1 1h-2v1h-1l-1 1h-6l-2-1h-2l-1-1h-1l-2-1-1-1h-3v1l-1 1v1l-1 2v3h1l2 1h2l1 1 1 1h1l1 1h1l1 1 1 1h1l1 2 2 1 1 1 1 2 1 1 1 1v6h-1l-1 1v1h-1v1h-1l-1 1h-1l-1 1h-2v1h-2l-1 1h-2v1h-4l-2 1H40l-1-1h-1l-1-1h-2l-2-2h-1l-3-2a124 124 0 0 0-4-4v-1h-1l-2 1-2 1-1 1-2 1v1l-1 1h-1v1l-1 1h-1v1l-1 1h-1l-1 1H8v1H6l-1 1H4l-1 1H2l-1 1H0v1l-3 1h-3zm4-2h1v-1h1l1-1h1v-1h2l1-1h1v-1h3v-1h1l1-1 1-1 1-1 1-2h1v-1l1-1v-1h1l1-1 2-1 1-1h3l1-1 1-1v-4l2-2c0 1 0 1 0 0h1v-1h-1 1l1-1 1-1 1-1h1l1-1h1l1-1h3l2-1 2 1-1 1v-1h-2c0 1 0 1 0 0l-1 1h-2l-2 3h-1l-1 1v1h-1l-1 1v1h-1v1l-1 2v1l-1 2 1 3 1 1v1l1 1h1l1 1h1v1l1-1c-1 0-1 0 0 0h1v1h1c0-1 0-1 0 0l1 1 1 1h2l1-1v1h4l3-1h1v1h2v-1l1-1v2l1-1 1-1v1l2-1h1c0-1 0-1 0 0l1-1 1 1h1l1-1h1l1-1h1l2-2 1-1v-3l-1-1 1-1v-1h-1v1l-1-2h-1l-1-2-1-1v-1h-1l-1-1-1-1h-1v-1h-1l-2-1h-1l-1-1h-2l-2-1h-1l-1-1v-5l1-2v-4h1l2-2v-1h2v1l1 1 3 3h1l2 2h3l2 1 2-1h2l2-1v-1h2l1-1 2-1 1-1 2-2c2-2 3-4 2-5v-2l-1-1h-1l-1-1h-1v-1l-1-1h-1l-3 1-4-1h3l3-1h2l1-1h1v-1l3-3 1-1v-1h1l1-2v-1l1-1v-2l1-1v-1l-1-1-1-1h-1l-2-1H72l-1-1v1h-5l-2 1h-1l-3 1-2 1-1 1h-1l-1-1-1-2v-1l2-3a33 33 0 0 0 4-4l1-1 1-1v-1l1-1v-1h1l1-3v-4l-2-1-1-1h-8l-7 1-3 1h-1v1h-1l-1 1v1l-1 1v1l-1 5-1 4-1-1v-1h-1v-2l-1-1v-1l-1-1v-1h-2l-2-2h-7v1h-2l-1 1h-1l-2 1h-1l-1 1-1 1-1 1-2 2-1 1v8l1 1v2h1v4l-1 2H8l-1-1-2-2-2-3v-1H2l-1-1v-1h-7v1l-3 2v1l-1 1v7l1 1v1l1 1v1l-1 1h-2l-1-1h-10l-1 1-1 1c-1 1-2 3-1 4l1 1v2h1v1l1 1 3 3 3 2 1 1 1 1 2 1h1v1h3l1 1v1h-2l-1-1h-15v1h-1l-1 1v1l-1 1h-1l-1 1-1 1v1l-1 1v1h-1v2l-1 1v4l1 4h1l1 1h1l2 1h3l3 2v2h2l2 1 3-1h1l1 1 1 1 1 1v2h1l1 2 2 3 1 1h4zm2-20v-1l1-1h1v-1h1l2-1 1-1h1v-2l-1 1H3l-2 1-1-1h2l1-1 4-1 1 1 1 1v2l1 1-1 1v-1H8l-1 1H6v1l-1-1H4l-1 1H2l-2 1zm-2-2 1-1 1 1h-2v1-1zm2-1h1-1zm24-1v-1 1zm-27-1h1-1zm14-2v-1h-1l-1-1-2-1H6v-1h1c0 1 0 1 0 0l-2-2H4v-1H2l-1-1h1l1 1h2l1 1h1v1l2 2v-3l1-1v-3c0-5 1-6 1-1v9l1-1h1v-1l1-1v-4h1l1 1c0 1 0 0 0 0l1-1v-2h1v-1l1-1v-1 3l-1 1v5c0 1 0 2 1 1v-1h2l1-1 1-1 2-1h1l2-1-2 2h-1l-1 1-1 1h-1v1l-1 1h-1l-1 1-1 1h-2v1l-1 1h-1l-3-1zm4-1 2-1h-3l-1 2h1l1-1zm9 1v-1 1zm5 0 1-1h1-1l-1 1zm2-2zm-34-2h2l-1 1-1-1zm3-1h4c1 1 0 1-2 1l-2-1zm31 0h-2 4-2v1-1zm12 0h2-2zm-43-3h1-1zm4-1h1-1zm24 0h1-1zm-24-1v-1 1zm-1-1zm-1-1h1-1zm53-15-1-1h-3l-1-1v1h-2l-1-3c-1-1-2 0-2 1l1 1v1h-3v-1l1-1-1-1v1h-2l-1-1v1h-2l-2-1h-2v-1h1v-1l-1-1h1l1 1v-2h4l1 1h1l1-1-1-1h-1l-1-1h-1l-2-1h-1l-1-1v-1l-1-2 1 1h1l1 1 3 1h1v-2l-2-1v-1l-1-1h1v1h1v-3h-1v-2l-1-1v-4l1 1v2h1v2l1 1v2l1 1v2l1 1v2l1 1v1h1l-1-7v-3l1-2 1 1v2h1v-2h1v2l1-2h1l1-2c2 0 2 1 0 2v1l-1 1v1h-1v1l-1 2v2l-1 1v4l2-3v-1h1v-1h1v-1h1c0 1 0 1 0 0h2v-1 1l-1 2 1 1h3c-1 0-2 1-1 2l1 1h2l-1 1h-1v1h-5l-5 1h1l1 1h1l1 1h1l1 1h3c3 0 4 1 3 2h-4zm-17-6h1v-1h-1l-1 1v1l1-1zm5 1v-1 1zm-6-7v-1l-1 1h1zm18-3h1-1zm30-4h1-1zm-2-1h1l-1 1v-1zm-14 58v1-1zm0-2h-1 1zm-2-4-2-1v1h1v1l1-1zm-30-7-1-1-1 1h2z" style="fill:#5b2322;stroke-width:.264583" transform="translate(35 -53)"/><path d="M-6 154v-1l-2-2-1-1-1-1v-1l-1-1v-1h-1v-2h-1l-1-1h-5l-2-1h-1l-1-1v-1l-1-1v-1h-3l-3-1-2-1h-1v-1l-1-1v-11l1-2 1-1 1-1 1-1h1l1-1 1-1v-1l1-1h11l1 1v-1h1l-1-1h-1v-1h-1l-3-2-1-1-1-1-1-1-1-1-1-1v-1l-1-1-1-1v-3l1-4 1-1 1-1h1l5-1 4 1h1l2 1h1v-1l-1-1-1-1v-8l1-2 1-2 2-2h1l3-1 3 1h2l1 3 1 1v1l1 1 2 2h1l1 1h2v-3l-1-1v-2l-1-1v-9l1-1v-1l1-1v-1h1l1-1h1l1-1 1-1h1l1-1h1l1-1h2l1-1h4l1-1 1 1h1l1 1h1l1 1 2 2h1v1l1 1v1l1-2v-3l1-1v-1l1-2h1l1-1v-1h1l1-1h2v-1h17l1 1h1c1 0 2 1 2 3l-1 3v2h-1v1l-1 1v1l-1 1v1l-1 1h-1v1l-3 3a21 21 0 0 0-3 4l1 1h2l1-1h2v-1h2l2-1h7l1-1 1 1h4l1-1 1 1h5l2 2 1 1v4l-1 1v1l-1 1v1h-1v2l-1 1v1h-1v1l-2 2h-1l-1 1v1l1 1 2 1 2 3v4a23 23 0 0 1-5 5h-1l-1 1v1h-1l-2 1-1 1h-1l-1 1h-1l-1 1h-6l-1-1h-1l-3-1v-1l-2-1h-1v-1h-1l-2-1h-1v1l-1 2v4l-1 2v1h1l1 1h2l3 1v1h2v1h2l1 1 1 1h1l2 2 1 1 1 1 1 1 1 2 1 1v3l1 1-1 1-1 1-1 1v1h-1l-1 1h-1v1h-1l-1 1h-1l-1 1h-2l-1 1h-2l-1 1h-3l-2 1H40l-1-1h-1l-2-1h-1v-1h-2l-1-1-5-4-1-2-2-2h-2l-1 1h-1l-2 3h-1v2l-1 1-1 1-1 1h-1l-1 1h-1l-1 1-1 1H7l-1 1H5l-1 1H3l-1 1-2 2h-1v1h-5zm4-1 1-1v-1h1l1-1h1v-1h2l3-2h2v-1h1l4-4 1-1 1-1 1-1v-1l1-1 1-1h2l1-1h2l1 1 1-1a417 417 0 0 1 2 3v1l2 1v2h1l2 1h1l1 1 1 1h2l1 1h2a74 74 0 0 1 4 0h10l2-1 1-1h1l1-1h1l3-1 1-1 2-1 2-2v-4l-1-1v-1l-1-1-1-2h-1v-1l-2-1-1-1-1-1h-1l-1-1-1-1h-1l-2-1h-1l-1-1h-2c-2 0-3-1-3-2v-1l1-2v-6l1-1v-1h1v-1h1v-1h1l1 1 1 1 1 1v1h1v1h1l1 1 1 1h1l5 1 3-1h2l2-2h1l2-1 1-1 1-1 5-4v-4l-1-1-1-1h-1v-1h-1l-1-1-1-1v-1h1v-1h1v-1h1l1-1h1v-1l1-2 1-1v-1h1v-1l1-2 1-1v-4h-1v-1h-1l-1-1h-4l-6-1-6 1h-3l-2 1h-1l-3 1v1h-4l-1-1v-3h1v-1l1-1h1l1-1 1-1 1-2 1-1 1-1 1-2 1-1 1-1v-2l1-2-1-2v-1h-2v-1h-5a26 26 0 0 0-10 0l-1 1h-3l-2 2-1 1v1l-1 1-1 1v5l-1 3h-1v-2h-1l-1-3v-1h-1l-1-1-1-1-1-1h-9v1h-3v1h-2v1h-1l-1 1-1 1h-1l-1 1-1 1v1h-1v8l1 4v1l1 1v2l-1 1v1H8l-1-1-1-1-1-1H4v-1l-1-2v-1l-1-1-1-1H0l-3-1-2 1h-1l-1 1-2 2-1 1v3l-1 2 1 4 1 1 1 1v1l-1 1h-2l-1-1h-10l-2 2-1 3 1 3v1l1 2h1l1 1v1l3 2 2 1 1 1 1 1 1 1h2v1h4v2h-2l-1-1h-15v1l-3 2-1 1h-1l-1 1v2h-1v1l-1 1-1 3v5l2 3 1 1h1l1 1h3l3 1v1l1 1 1 1h1l3 1h4l1 1v1h1v1l1 1v1l1 2 1 1 1 1v1l3 1h2zm2-21v-1l1-1h1v-1h1l2-1 1-1h1v-2l-1 1H3l-2 1-1-1h2l1-1 4-1 1 1 1 1v2l1 1-1 1v-1H8l-1 1H6v1l-1-1H4l-1 1H2l-2 1zm-2-2 1-1 1 1h-2v1-1zm2-1h1-1zm24-1v-1 1zm-27-1h1-1zm33 0 1-2 1-1h1v-1h2l-2 2c-1 0-1 0 0 0v1h-2l-1 1zm-19-2v-1h-1l-1-2H6v-1h1c0 1 0 1 0 0l-2-2H4v-1H2l-1-1h1l1 1h2l1 1h1v1l2 2v-3l1-1v-3c0-5 1-6 1-1v9l1-1h1v-1l1-1v-4h1l1 1c0 1 0 0 0 0l1-1v-2h1v-1l1-1v-1 3l-1 1v5c0 1 0 2 1 1v-1h2l1-1 1-1 2-1h1l2-1-2 2h-1l-1 1-1 1h-1v1l-1 1h-1l-1 1-1 1h-2v1l-1 1h-1l-3-1zm4-1 2-1h-3l-1 2h1l1-1zm9 1v-1 1zm11-3h1-1zm-38-1h2l-1 1-1-1zm39 0h1v1l-1-1zm-36-1h4c1 1 0 1-2 1l-2-1zm31 0h-2 4-2v1-1zm-31-3h1-1zm4-1h1-1zm24 0h1-1zm-24-1v-1 1zm-1-1zm-1-1h1-1zm54-16h-4l-3-1h-1v-1l-1-1h2l1 1h1l1 1h3l2 1h1-2zm-11-1v-1l-1-1h-9v-2l-1-1h1l1 1v-1h3-1l-1 1v1l1-1h5-1v1h2v-3h-1l-1-1h-1v-1h-2v-1h-2l-1-1-1-1 1 1h1l1 1h3l1-2-1-2v-3l1 3 1 1v3l1 1v1h1v-4l1-1v-1l1-1v-1h1l1-2v-1h1v1l-1 1-1 1v1l-1 1v4l-1 1v2h2v-1h2v-1l1-1h-1v-1l1-1 1 1v1l1 1h1-1l-1 1-3 1 2 1h3l-1 1h-4l-2 1h-1v3h-1zm27-1h1v1l-1-1zm-38-2h1-1zm11-13v-1 2-1zm2 0v1-1zm-8-3 1-1v2l-1-1zm-1-2v-3l1 1v2h-1z" style="fill:#1b1516;stroke-width:.264583" transform="translate(35 -53)"/></svg>